<mxfile host="app.diagrams.net" agent="Mozilla/5.0 (Windows NT 10.0; Win64; x64) AppleWebKit/537.36 (KHTML, like Gecko) Chrome/131.0.0.0 Safari/537.36" version="24.8.6">
  <diagram name="ページ1" id="f7B1L8fFtI_3ujkdMUfY">
    <mxGraphModel dx="1937" dy="1104" grid="1" gridSize="10" guides="1" tooltips="1" connect="1" arrows="1" fold="1" page="1" pageScale="1" pageWidth="827" pageHeight="1169" math="0" shadow="0">
      <root>
        <mxCell id="0" />
        <mxCell id="1" parent="0" />
        <mxCell id="9ciRj2-nHP8VVuhVhLj_-62" value="" style="shape=image;verticalLabelPosition=bottom;labelBackgroundColor=default;verticalAlign=top;aspect=fixed;imageAspect=0;image=data:image/png,iVBORw0KGgoAAAANSUhEUgAAAJwAAABWCAYAAAA6y/+fAAAAAXNSR0IArs4c6QAAAARnQU1BAACxjwv8YQUAAAAJcEhZcwAADsMAAA7DAcdvqGQAAEsRSURBVHhe7b1nd5xHlud54TKR8N4Q9N6JFOUoibI1rZo2Z3Z3Zt/sh+kX+4F2z/bp6jPVpZJahpJoJYqS6B1AEt679Ans/3cjA0hBoKlaitTUzgWDj4snzI1/XBPmyapsNrtqL5CqqqrKZy+OfgtliPRbKkslPatyVZePL4R+q8x9UfRb5AdlepbleqGA+y3Qb6WRf6tge9b0wgD3W2Dw/wTbo+nXKtOvDLjVtT/O18OLp/8JtkpabxuKE4r067TX0zsNm8Uq88qLtaL/vbDcjCCLtH4ui0BxwHnFy+XTSKurIT5pVa29WxGpMulIG9J4Ev0WGvr/Wxk2MEGX8C3wtnzDDzp6NvpvLTu1DvcrnlGUtbYrvxquw0vhntLnOpbb0wina/ecyueVt8r0SMCt3dTJJu/9jFYUCoWiVVVXWU1NteddWi3p7qrplv4PfxS2pqrWj6QKRr3O5cLGMpdKK35eUw3zeC+SzmLBOBJ4GMNT0gsHW0Wdf0FPVbTIhHVaFc9KxZLV1Iq/nrbiiLmrK2odXdM2kU/cW1kpKQQ+V4vPNbU1ns7K6opeo0Wr1HY1el4dcKX0HdCKS3yIe0rE43JfDzyvQPEoKp96cz0acPF2gIfTJjEpDMDxh55fiL0qGBJWBDwqwH3qrOKGiugIlFZXq6xYUm5URnFqahWJREXEj5lGkPpluLV+LD/y8AR6ZEM/T1K5H1uOJxZxEwaIZ2iZUkkdHSA5iGr9KcBaFcCUqVXXCFgeHaD4LWd3qVR0sHkbSGhUVwewhXdXdS8Asmota04oKAmUrx3UAYyecKTyqb/xS8ABNQoTJFQgEqHJYwblowiAE7w8usU54PFOoNIJcuGaylYrPVU8pEMEEFoT0tAjyug9sZzvzwFXpph3LBpUvvU09FsAXEUX3pyeWEQqX8kA+A7YpGUqUl+tqGu8WyUwgY0VbyOBUkwGaEUBFcnnWkpgC1JMAsEbNACYF0nFeRgbjDskSHG8AbkHcb5+CnmUXwIOyVTUMa8A6CAyD1KJ4xpY1Ph0FCpbDTqU0oqkFb2ipk69pIZ7oecBvupq0ivqFr1GpwJbdXWdH2PhYUSJ9HTpaXoxN6hVwlqpy0/WIzySfhNgowwbOP4LemIxYwLrCQGYQjFvtbV1Dhb4uCKVR9vU1NTqfu1abPgb2gz+U6ZwnwPNAn4g2O+PvA2DCsbMcWmnON6uAFJUFSVOJcXL8pFkHws4Nb3fCUALYFs7Xy1nQMYCmUsmZb6KSNfNKmwCB6GuiwWVWWnWqJLCF2jzwiqNKtl0frMMOlQsJfCeGgvs1+G4TvEhxxgeTb8ZsEEbOP4LemJRNyZQ1knia0G8LgkcmC2JuqTuKjH9g4O85UnDeh2KahKaAdCVNabfI0CJhO6rDatAoNLmXYQAoEO1or6x46gXqvoXPI6XFbcfqVID2FwMeQgiWRmVr73EqLdyYbwELrZ4rxwcm7qPGq1Sb1MPXFVw26JWzABkpnOBjldXV5Se7lVVR8M3MElPPHAnnq8Td8udoBxjM/rbAhy0nghnocXQDjqLjzw/bGY6b+AlAFteLtjc7LyOGVvOZC2fk/1WllS2Wm21AmpjQ6M1NdVbe3ujtTTXWaIMSCQjbVWj9MpWuOeHNK122492EG2sQ/l6U6cByPG3ThFwOou34xFjdKXg0suqAR7dRr0svSDPNSNG4L1SGQCneOoVNbUJq6pLWbVAV+Mhpec1KrgCEk+VDqCjlhtBF47rgXIRL8TdjH5TYItE0R9Ff2FxSaooFBQFOXgWoCDw6R7n5J0vlGxWIJucmrWJiVmbm1tQU6yqjSQV9YwjmEPNJhJJS9WnLJmscbB1tNdbV2eLtbW1WoPu1zISoUxpi4AH5RYBp+AF2lgHv1b8zQEXwhrpgvhraVQ+BGzFrAQVFcxbKbdkheycZeanLJueE4gKVofWFB6qpWaraup0D7VJb0hK0DVaQ2O71aVa9FzAq6pDAwtwdRLzqASYFymUrNxXy9eUCrBFKfdLetGA2zT/Sh5upL+wuCQF4PKo0jXtIA7pQbFQsKV01qamZ+3+/WEPc/OLrnKbmlotWd+gmNUOulIRnupdtY/bhPmMVPSSwGc2MNBn27dts4H+Hutsb7Fkok4CRFFdpZraOEjSR5a9LKkeDbgNdwOiN5JuYqOt5nSes9mJBzY8dMMmx4YUP6feYKpU0lpaGqy9o8US9UnLiQHZnJiwnLN0Rg6EANbY0mltnX3W3NJrtYlWpSqEmqRglYwInQOxkHssFD03SM1wH6BtLuFeNNigX7sMcAVOlNRoBaEMO4s8s/mSDd4btCtXrtnD4VGBK2U7tu+03t5+a0g1OjiLxVXFy1taoMzriAlO22OfFQpZSb2sjmmpX0lESYLOzg7bv2eX7d+321JJ2d7eDMEJqVW+7ij+giJ4niThyk/KcTdpTiIINKWMFdPzdvPat3b54tf28OFt6+5stC397dbe1mD1Es1dXW3W2NpoNTIGaurqrCBxvryUt9mFjGUL1ZaSlGvv3GptHVutPtUhhqFmkXCSiL+QXKGEAXQQJSPOL0v4ogH3vPKP3Y+Qk002NTVtdwfv29jYmEC1Yq2tLbZlS5919/S75licX7KJySkbHRuX9JuxpaVlSbS84mJ/MxZXI1uu1lINEgiN9ZZKJWUf0tYr1tzYYLt3brdtWwesvbVZKlZ1BOiq6y+qu2aDQY8EnBCLZShas93Kf8CfHuAJ+2yC3OVixqYe3rWL5760y5fOWnpxUjq/0ZobkDp5ob8oCZeyrdu7besOSTJJO0R5XiJ5dj5jcwuSdrkqSbc26+jablsGDkiMdykfVXJVbj5OhQCFjYGJEPIO5XQ7wm+EclbS3wTYqKczPKTHqQ+S6xHXRcbeqoLthApdXErbyOiEDQ4+sKnJSWtqaZJU2yaeDlhCEmlubtGGhh7arVt37MFDaSRJvvn5ealOWYCSavl8QXxeEdjqrKGhwZqam6yzq936t2yx5qZG2Xd1lqytsyY96+3ptp3bB6RmaSuVJxQz0NoJTky5/Pz9EnCArWTFlZy7v0QjQpiSklHv4jOMx6yWCsqkaJlc2i6fO20Xz5626fEH1t3VbKXCoj0YvC2RfteKEu2t7WavvL7b3v7gZUmxJmtQReqSTbYitZkv1droxKJNTmck/Trs6EtvWV/vPgGtRcYuI+Yp5Vvj4j+ZkNhW4anDzwC4VsF1+h8ecKojvI9TfXiA8B/7KlxXWSaTcxAw/pZOZ+zOnYd2/fpNqcBF2759u3h52DrUwecEquvX79gPP/5oP/10RYC8J5Mm4yCr0/v19fWeXjaXU5rYbjh7ALnO6qSKW1tbrae72/bu3WO7duxw5uezWUm6bfbG6yeED5UBlapyOb5cKSGccEZkWzJsooc1//zP//x/8uhnVEUFJb0UVnC2lTiVBaFhHq58rdbO57I2MnTPPvv0E7t586oyXLUtfd2Kk7fbt0btyo+TYsSq5YTrni1Nduhwn8R0lcCGA0HJ1AOqsSOytiiGLUi0Z2Tj1QuMrc1dep5QoRk6kQSU6KZCEJXinIr5rfL9SP/Dgw2ifhxUUXge1J2sWjUe10ijZDLhgJuZnrerP96wkYey1eRl7tm92w4e2GfJuqTdl2r95usz9uknn9qZb77S9V2lUnJ1uHWgV6pxi9Rttzp5l/V2dwhcMn3UJpnsslTtktouJ+hImsqGm5udtWlJzjqVIZWUyaMOkFG7dXa2S2thewdCTPmfGsqx4ux4BOCCmipfeJVld6HW8C4VYGaNvJxcNmO3bt6wT//8J/Wc721malxgqrW9+3ba9q29DrqZ2XHFzduOXS326ht77KXjO62ptV7iXdJSlWKSf1WgKYiBWTkUAG52bkm9rlGSsFfeT0q2Qxjxqa0NKqVSdEcArt0o098E4MpEUmH8i1kDFx3OB84D2Obs3p0hGxkes5bmFqm5bbZDHiXAu37tun3y50/si88/twf3hwSOJeuTQHjl5WP2yisv28k3XtPxmB05ctCOHDpgRw4fkBTbpThdsr9bBfYaSwtw6XTa0svLtry4oDTSKou0VlOTgFnl97vkTDSkGly1U3MVz8EGH2LgweYSTk/4A2io0Wp5impu92AwzplrK8qNfvjgoZ0587X9x2efSoTPCckr0vctduToXjt4cJd19STlpRasuy9pb5zab6+dPOR2XH09YyQrchyKUqcFH7CUOSopVxTgMjbDGJHya2xsk4fbqeIEx4ExpSjZIAcf9eC6fC/SiwTcM8tb9aPhnLyuTCtVS6VKw+i8trbGFheW1Onv2NjIuIz5Zkk2wNLr0ujatWv2qTTPV1+dliN33zo72qRhDthbb560d959214+cdyOHjkkgO2WnbfVtm4lbJMq7pfD12sDcgpa22QLie+zs3O2JLCVpGqB/PLioiXkVNTVEmqsMZVymy/FGIpTsDP5j7E9GonrTQDHbYIamKknhhtUuZUSIpUnPFuxBVX0/PkLCmdtenbSxWlbe6MNbOuxXbv6BbxG6+ptsf0HdtjxE+o9rxy2noFu9QDGe+SGy1ZIS0JmC3mBrmS5ArYgY0Y5Gb5ZW1ou+JBJ35Ydlko0CVwB8L4IgCJANAIqNRa5TC8SbNAzy1/JkNLaci2BTYogdDTVG1X205WrNjR032cGjh6RvdbeofvL9v33l+xf/uX/sXPnzko1pm2nvMoTAthHH/2dvX3qLVe57QJgQio5FJc8gDfTYtXq7I3W29tnO3bstK6uHs8rLfW64gsEVnW+KLDPO+j6entUrpI16Z1mST2XciSqgpKir1ARcb65hOMJoUyUg0oy9SR17OJ0fGLWvjz9lf3w02UluOqqtKkpYfUp1G7GEqlVVUZBgE81Adqc5TKLEr9L6ikSzRLLOSHY3XghKS1bcFH3FtJZH59bEOiymZI1NrVbS1OH1APDJIK70EZdAB1HZxahgn770q2CuT+jzd9luso7uv6hWerqaty2unPnrt25fVeSq9MOHtpv3bK/Zmdn7PMvPrN//cO/uplTn0ra0aOH7Z13Ttm7770rAbDfx9IY8sAOjKMRLoWUAaqbiX8IR6RearK1pU15tLuEW5ifs4LaipLmBGQkXr2835ScDlRwkwCX1DnlXfOmBZqQ4qOcBsgBFo6E2LAADuN1eGRSveecvJ271tzSIGAIWVUFqdZZSac5SzXK7qstSWqpJ+heQU5BQVItuywgySYouLhSYkJ/fqUoySawLasXZQvyTGWI5lbUM1k2Uy0G9Ui1tjlTKEZws3FcKFO5gE481f+/acDFskI/L/f6sYK4RXWVLp2Nui9JnT24/1BqcsS9x33791h3V6dNTk3Y6S+/sD9/8rFdvXZFDZ90qfbuB+/ZybdO2s5dO625udkXVjgPnejAYqQC8PDgdjpSKoAwWZeQ5GxTOVZsXk7DzPSUJGpK0o7ZiJzPo7a2tHhoagpSjtUjQb6RNA0VaP1sI6khKZQvcQGpqjiSkXcZ0c5LFWKDrejBqgrmc3XzSzY5s2CzUrdjEzP2YGTKHgxP2L37ozY+NW8Li3m53LLXCgyvMMUV1sLlpU7xUnOFnDsReK91yWqd52zw/m17OHJPEm9WVWfMifIwVsTyqYICSxtCL4V++9ItUiXwHkOK5l4ekl2XZAHQBuV5MoxxRGq0t6fHJicn7MzXX9u/f/zf7ebt69ba3iyQvS6wvWOvyTHYtWe31QskwlIAmzovc9o1AhPz1jiDBLklepRQYNBd931x7Iq0TKMcjeN27KUjbgs2NtTLbqs3VgdNKW/CxMS4TK15mQC0SdmG20CbAE6FUaMyCV9VnVdgYlNmPQBUbC8wsRg6ka6m7AtSkXfuPrDRsRkVNCXbYMCmprM2dH/KpmfylssnbXx8WUEudh47JCEpWS3Pp2hz88u2uLjk40mM/Qjinn8iWaseWiMpt2B3B2/Z8Og92XrLylllkiRFmgbAEaIo/hsjVUkaTnX1f+4sYDsDuKJ4tXPnTkn+JhsZGbHPPvvc/vDf/2D3HwxaR1ebvXXqpP3Tf/lHe/3N161TqrbISh0EiALr4XxNnGdB4mpYCQ3AFoI6u8wnRmFYPlZXV+dAZ6D38KGDtlfgDWpVJpNUM5oLsE1MTEjlzvv8rYNaL8VOSDUIj5BwFAVJI1DVqkiSOExrsGa+3DnchgL5mWzWZmbmLJdT/OqkQFMj0b5k84uywxZXbW5hRfZareWLKUtLss2l5Rio1yxKIs7JEJ1eWLR5qdKsekpVrbywOvVm5VtTW5T9t2pJ2YLjk4M29OC6zS+MiWEZeckYuCUrruZ1XQbpU1GsdqjfevhtAtZLKx7TZDQgjYnnyWqNffv2WL88yYnxcTt39qydOfONDQ4Nyl5usGOSRG+fetsOHj4og7/Tx+oQFCzQpAHjXCttSSAjcFHGRgC5yKUqDa0SEJ/prg7Ziwwot0h9+kC0EkCizUxN2+z0tA8aYxv6+/4/VM5EtCngKISP++gx4zBkxl8sIGuh6mUfcGSao0/eTG9Pn4zHBvVAJNuEet28jUqiPRxZ1HHZphclepeLNiz7Y3hx3sbSUr8C65zc97TyLAlsqwKb1Sl9mYOJhlVraF61llbJtNKkbMZrdnvwsgA84qCrRgoLKFTDV7fSMGWOhfKHYzwP9eEvDsKoF66FANrwXO+Uw19CMe+nIi9Y+RzSNQ3nK6E5lv+IRLLUDSdhamrSx8H6+3ps+9YtVpRkuXjuvJ2VKmXmINXQYC8df9lOvvmWwHbE2traBU6kU/DsSQthxnmw2AIoCADB7/uzEDfYyMpfcfNiIoqySTZj/8BWa2hqluORcMeCFcXp5bTNzy/Y8tKySzhnut4NgKWKoX6PGBZRfGx61qYxLCJdisGOMclzClPIl+zG9etKt2hvv/mm2xG1Ag3jP+SFnYdfkCtIDcjjzEkdZHEqVuUcSDWmZZ/lJKVKtUpPQFvVcUUVRFUj5eqkUusSrM3Ss1JBjobekZebrE+4R5SU++vlkypYUfm8fnBThDet7J159FYA6ZJCZoHPoDjrAF6UbpCzXEEv6R3ngv7z41PQUwMu4CiQl4t3Oedf+PNH5SPPGIqYnJy0SUmzNp8dGPDOfuPaVfv4j3+U1LvqsfcfOmS/++gjOy7QdXV1e5sFCqP9vlK3fIcjKjEc+Svf03/wLVaHdIsqZKE8PcUbAIsBZVaX1IILMbkoHDQK8Fu2bLGdO3bIu5WnitFfrpx7wzrd1Ev1AriXgshUdOKqFICQZ4wu09jzc/MyIDvsnXdP2SuvnpD7fVTuuXT83r22bdt2a2tvF9pX5DiMhhXpskPztTkr1pRsRWo62ITKgKMCTlFNTZXbb1WsFBYYknK5/VpAzDPPJ6lIWeqTSUnZlJeHtV2AjKmeVe8cDJB6Rby+qBDOS8z9OuhC2qqRjlAEW3hJUdcoMv5J9PQSLpQFxuLl4ZThxfnQgYqFOqJ0QSoBCTqutMPUlC0uLNiAGjSZSNi9O3ft69Nf2rWrV6VVJPUEwrffe1cOwklJwC0+OO/LjWTrAbO468obkxx+Udxww/+PRVRAcNBpw+BttWzwnE1OTNntW7d85Qgxc2oT6tJQ3+Dl26P2ZxA47hAjJVezqs/mwyJkWGYgmVFpGg2GQICCUe6g09uF6n4f3e6RUdnX2yuwbfWBRlYYIG7v3x9SD8lbdULpJJUxalMSjQIhFesStT5Fg5pmGUyDegfnIdSHEWx5WBiv9BSk6mo141ECJxPXLulCmZlnXFt0UOZruSpquDCU4jaM33G4KoQBbj8ve0Vr75XffRw9PdiUtAqFFuAdB5qOlAsnAElcLX65bVTOmPgACgkHgPr7+mxuds7Onz9vp788bdMCYld3j5yDk/bBf/o7G5C6A5Cevt5HAvnCSKXjKcIUzrzMfqeCuL9+l5jqx16WsKRcAkNlmJa9dvvWbV/OhJcK4Ch/fSJpA1u32oGDB6yxPADspHddYpfT2JSiLRGyJRA/FAWwApTt2wd89UBDY4OuAU3Cx4X6+wZs9879cqGPu3jfuXOXd6xFebPitQqnxtdxVTqUXVuJREoFbHZDlHVbzVIbbW3N1t7ZLPe+wdo6Utbd22z9W9uso7teinDeJmbu2oOJaza7+MDSxSkVLiOPaUWAQ12ykUSqHZ0ey66D5J5Yh5lAkG3jgWk7QKc/xfHgb/yKpDzc7vRTGkNH/ccRckxA4jcdnqXhjF0mk/WWVuPeuXvPZxjuP3hI77FDR47Ym2+9Zbt37xYvcdxkqgjEdbKv6hj2kAZgOTl2rHsP3o4VtYyX5VsxewjOBElbfuwFlXeqtqbNESgIAogl7UE40asVu4wXXvSxOB03BRxgQ4wHbwMVFDLjHU4oPPk2NjX6KoE2gQQwMqyRd5c4vJesS0nEbrUjR47J7mqQYSl1KqCVCurVRVWiJMBV1alHNkj/N1mTQIfhm5CdVlcv+y1VK8chYcnGaqtvqrKWjjrr7m+wpjapz9K0jU/dFuiu2sTsXVvKTqi8S8o1LXtCwC6m1Vg4BDCI4qiX+vJrgY3VJwQHHqpGAZ0eWBri/0qEOVArqQz/CjIBWGrEpqKEwIQBznBFUbYLzykPMwvTM7MOoPpUyodEfpIaBWzsO+3q6bVj6tQHDh5UOjU+dJLLF40vIUCxKmvmkYOgXE8ogmITik+CfHJOWo7Be4Eee43JejRQSuWCACCzDKyliwCLFIXVpoCjmKus4ij3wUjY5ACXe45FEQl5x1GoBe21LCcSqHQTxDc2ttgrJ16xXbv2S+Q2WjZdsAIzCAId87OscwuNHWwECknehaLAWcqqcVY9lASkTG5G5v6CpVpWrLWz2mrr0za7MGT3R67Y/dFr8oQfyDmZVSFZV1dQxUNn8bKok3h5ObjaVF7kvSLQxTL4M4/2qxG8gXeYE8xjhimmMPhNGTFTkEwAJJtjtc2cr2XL6HxRnuC16zd8vdvM3Jw0QZvt3LVb5ky/pF+j8xPNk1KHxfZFeuYFPr5s4KqadMu2mDPmMWCL5NNfCpjUqE2WJzE8w8jEgOzGdtnwCdnTTL8BNmYyWF/nAKvgpeeka1p6U/LyUORyuQK+dS7EsW4dKYaIhklIQzJAvIJsAIiawqtFpPf3bbPO9k7dw33OO+CQbjT2qpjEjiG2quVzAqMzHrCTiO4XZZBaViWVvVCdtUJpUQ5IRlJPRmqzClQjIOanbHpuyIbHb9rk7JA843nZLkxCy9ZbZX+tWtRrXEGAzm/G8NdR7LlPS9QLlef9VbxyyaP83Z6tCyMBU1MzdkUq8+zZc3bp0veygR/a6MioDQ7dd8kG2Nj0Ar8BEir23PkLDsbRkQlJINmInjbA1pE2oY7emGWw/aze8ViBkDXSPfUSYjCBz6qRbCbrdvpWBaayCoW8Sz4m/AGgbwP1PBBc5eBpPQJwXtBygaNRE8eIwjMAFxMKhXFPUBR23vOO1KUAViMbrUHqkqVGtTUJy2WkRgQwH7qQDYc9l8+VLJPJi1F575E0iDNMaaYzS+rpaWUg+yyJNGVTx6J6bdpqEkVLptSzGmSz2KLANmjjM0OSBONyUqRWV6VeLSdsyVNTJ4HXTrH2HON5JK9zOP3VSDyFRQRwT9kKMkUmMcblfV6/cdNBxHzp/QcPbHp62kZGx2zw3pDOZ9S4zACJv2rYtBr/hjzGb86csTNnz9t3l36wm7fu2vj4nDx6OWoCHKtMaCu348jzZ5UMx8iKAI0YeKo/NTpSDi+ZtXBJSbQeqXJsbqTevO4Tu6OrUw5Md1CpSnYNI+VAVpsALmQUABQy5pQEHIBOvBzA516m1AKpUSikE9vNGJvBla6tSUpFJK2zo8tamtrEWNSp7BQPK1YQ2PJZwUISLqtjPi91qvsrAqTMETeWsRkYi4JxaAR2E2Uyi4q7bNV1Jdl31ZZoVN7VrDYZt8nFYZteHrZ0aV5eVtaqauQ8xGEYakw9KsNG8k6GDAq8eJZE4zm/hH7qhyrKq9FGxkbt4sVL9vkXX/gqkPaOTjv60kvW3i6JISm2sLjoU0fL6WVfBl4j9djS0ioAUdYwXDE0OGiXvrtk33x91r799pI9eDDuu7GiMGfBBOZFaFWC6zAPm5NUPMDWcxZgzsxMCwtVPvSBZGNWYVxlmpPEZZUI6+l6enslGJiHLZOSJkfyo+6bSrhIa8gUrYMtULwPkRxjZO4ZCd14SkHd0mg4BmyobZM32+xgLCDFJPaRaJk04higAUTApLTyMv25ny25bQJgMZ4zsmGUsbv9TNeEPiEbZSXj6jYhSZdfWbSpuYc2NnPflmXzrUilMtCrXH2olxIFV389OJGWB91ZC/7kmRIAyaku8JPpwrHxKTt37qJU5w8CTd6OHTtu773/rk/Ks/EYCTM+PiFVOWLz80whFsSfgjsQ3T09qvuKNcluOnT4iM8wMCJAOlevXrOvvzkjb1b2nrxcBAhDWTCNpqPePw8Ar5LCld7wtn0oSTsyPOLSbceOHUqm2odqUPXLmbSA1iM1u00dpd1BSQWDlhLE/DqkuAngIpcRpajVGCXe9ycubdx+USo4pSFueMcHGXWMPQdR3twclq/QWxjsRLqVCEW2C2Ytzfo3AU/mgCTeiq7zvo2Q6b9SsTrcz+k9pgNl5FczkizkFGXz5fNp9d5lWxHoCNnivM0vjdvc4ricCEk5yzjwGAvEeqLHAzplLcdGQWWEGQQcHTYRBYp3n45cuitAdMjKaz8XOOARvEurkYbVgLdu33G7qL29zQ7J09y/f7+M/pSk1ZBduHDRbkldToyP2fzcgi0tpVXXvDsaeIeUjAFhVBpDJgyLnHjlhB0/ftw6u7psRGC4dOmyXb12y6ZmF0ITUncdeBf1Gs8hOgMeMuUMrVylziFVL2Ddl/3I6l5mlPBQHwiAzOuOT05YS2urHX/5Zdu+kxkGNrP76wrgIaQT/gTgR66HUzEiiMLbUPlc/4KNR2/BLpAnqcLEgT5/R/fCu4HZ7OwaHhmywYe35XUGtcLubaaw8oWcq2PUM+qD9XZIQaSaL48BHQrgQEKhfB4CcdkqVywVVA5G7ckzqGPSxIOqS9TrPktwKBNzw0zR8Hyd2YCQc2QgwUtO/f3MrzalWEeI/AhrfClfx3NikgcSCJvs3uB9H9TdOrDF9h/YZ52dnTY9OWXfSi1+/dXX9u3FC97QGOkhDQAMGEyAS3k+D4dlOkjdYTcxANzfP+CqjVUkeLfjY+O2uLRsCda0dQaDXkl5elGqcRZAFu4TwW12XaPG78menJmZ8VXCA1sGpELn7fPPP5dTc8aWl5ft0KFD9vf/8A++uDMZl5g7W0hBVOYRvHwM4CAiRoZuPAby8mGvYZSrgSDS94L7OQOHklDFnN0fuWd37l3XTTwsgS4RBw0DM3mnRqBjfIqVKf6+jC5CAFsAmTnYuFZQAzBlhXoK9eKZGCi7KNiCDDUI3JIAddUMgoY9rqsqE9KeADGFQ9XiLATr8tx6KdfpUVQJuNgJMaS9LpL0XAMI6oknyobjIXmad9WIOEc7JRX27tmpPKvs6pVr9sc//tHOfvONPNP7vmxreWnJZ1wSep+Om5fDAH+YYWGB5aJsu5HR0TATIWmP3dzR0Wq9fb0+eb+o95GQSzJHevv7fcwMoKGKWXVCK/EeXmZCYGRoC55iK+KV3rx5y0E/0L/FdmzfobZekQd9xf788ceuTvv6++ydU+/YyZNvWFdnV1mFBn5AZcit0WMAx1uVAapIqUwOOPWGNa+2TBFwgA2mS6jY2OQDu3H7qmUx9gUs7AHUA/YSvZ5FnTCMXoyadknmokfvy6Ot0nWVA06VEviYg4cBDjjZcuTPp6UchKhaNQ4ByZaQh9yUbDJ2m3mZgR1l0x/nwbNer2F8TngcRcBR343gg6LEo64Y17fv3JGkH5W06bQ9u3b58qGMJBjG/lenv/JdcJgJpNQgtclUITMmSwuL7iFSeKQ4+wfapMpQrZ1Kg0HjCYEOaQ/QuqRSUW/MApH+hFQfkq6np9M6W5tUO4FOnRZ7i7lx32csFjB4T5nxmn+4fNnttnald/jQYUnNZgHwpn38p4+lqi+5VjshVfr+B+/bTtWFDlBJAQE/p0cAjupuFn5JsfHi5PC6ZAuB/2g01uFPTI3azds/2czclAONHT6uhhWPvY95eVoOTkxLgQzJiZEB2PzPpZ0iI/wwvvQc2z4MUsNC7kmqqYGYWEZKsjiQI2VgjybfTIO5KAzycbOBAoSEQrm92KHc/uwxVAk4Ggryd5UHEon7SDckEVILadQkW3bPnj3W3d1ls9Mz9vXXX9v5s+ckSYaUkPmeA8D48vFjduylozYzPe1Og0tKDH+l2Sggden9tvZWe+WVV2S/7ZEUW/bPNmBaMEWIId/W1uYVmp1fkPMx7o5IW0ebOgDz0s7C0D6kq3jYiLOzs/ZAZcVbbpXtfUQqs7u724aGBu3TT/9DHeO01HzGF2sAtpcFOsDo0q1MSnZTeoJKfXqCwTA3TmtF9QJFEM3MT9jtwRuyO2SASiVgfFIwnqOGXJWqkXwAWQ8ASpWABZTZrEjz8+WvKqSGOMXoNyBDMbABm+MKXwAS2JB0VH+VHiuJgYoFvQ2JlNVLvYYy8X74o5cHNgFE5SdJG589jmIdKwFXCTYC6urevXs2OjZmKQGFFTV8NoHlRhe//dY+kXoakS3Gku2trLaQrfTmyTft/ffes3179zgQUWtpqTlUK6BglgKbDx6++uqrdkzgbBWYxif4Vsi0d+gDB/daQxNTTUmVo0p22KwcMzaZJ4M9J7OGFUAqotcDbYEDc1dAu3HjhrXI+33pyFHbvm27l+9Pf/qTffbZZ27X7du3T3bb39ubb74pb5ndeOvtDRcfRY8G3Ma3HsN3mBpUiJgO4BQXUb1egCA5FtOz9nB0UJ7ZTZeIqVSDsIHdFlae0EjLy0sONlScL3/hua5JvYZ8SAsV7oADjMEYB5T+pUalASD5NnWdmFCtuICuiO2Tzbs9lEqmLFmbVBmlXsnDyx8gHbr9ipfnSWCDYh29wchfBC8ABWmgmu5IjQ4JNEiBI0eOuFeHavpMhveF8+eUy6qDoEsAeklS44P331eDssRH9pbqMyq1xhJuDHTWA2bk4cJf7DFG+ckDsB2VNMRxmJmdcYm6XTYXw0oslKRRGDeblVrn8w3ES8qGZnO5P8sW/OM2zGwMykPul2322iuv6tjvA9B/+MO/+mZqJC1r3v7xn/7R3nnnHZ9tAGze2eBFmR8bKd79yyTc5mk5YWyTKRKOaJUSDtXI+rZsQSJ/dsKuXr/q4ELVYF8h7eoSCe9hjDWhBul6LImhMep0rMPO4Kgk4VEMvmyGhiYP6gwQ9Q4A5blK5QCk4UryfJGaqNXmphY1GlNriqj3sO1cvWIv6hb/e/H9v0dTrCNUCTgCKnBUKhRV2t7eLsm1R6BrsWvXr9m33170BazMSzKuuH/vXnvj9dddPW7d0u/edSSM+7m5WU8LHtMpcZKQcuy0p8DwsbG50bbt2OF8ZQYCDx6bjV11eUl+vFYckaSA2tHR5XkkxaRlAfH2rbsq03e+hXP79m2+x9XVqMD354//bH+W3YYduEuq/ncffign4U0fj2PVCJoJPvi4WyU/ysdK+utU6qZtEKQY5Ef+82vkm/6EhhVZ+UvpBbt246r3VlxxgMr4jm/IVbx0mm9ZyDgW4MLHUQQ4if4ArlUdAaAaQYjiHEChQhlUQ8UCNkX3uC4J1RCkSzQAnU3LTpQt2NTQIq+sQfEFtLjhm3MHneKS5gYGbkYbn3MdpL2tgY1rVBDzjHyx6MvTX0plXXcPlPnHHVu32euvvepg6xfYqAcdxBtRYGPbHZuOH+rdXC7j0hMTBIB3CMh01oxs4Pn5RV9tg32HY4Gk4xNdra3N6uCrsvEya9NQSEdU7bwAiMd87eoNB//uXTslZQ/7MrNB3f/8Pz5zyYZKZWD3fUnfDwU49jUwBIKAoRMgzeOAL+k/ip4R4MgCwIHywHTv7fpHxUOj6Lkc0lxRrrZU6qTsAKasGD+iQRJyKsKcHx9p4as+eUkmpBwfugtAqwFASqdW4OW+m/4wXszE1gMogJStEQx+MG7ioFP+SEJAl88wmEwaddbALEaChYKoHEASAw2u9FUevezXj6JQt0BefwU6EqsqmAdlLwIDskiLcdlwbHb54YcffF4Slblz+0479fbbdkSqtEOAFAMkhQskVpYYqos6I4sdFwUIbCzu0cio1jAIHAZbmdQflspzr1zSC++0o7PHV3DAX2HYJuVUsFKb+Vj1QLt547ZdvXpd11kH/ZEjB3zI5fbNe/bHP/67nf7yS9maEz5884EchHfflV25f5+838agRkVhdYh4RcGc1nmykZ4Z4AAYzI69241mHd3T84Igeaok2nN2885NG1Jj+BgTA4WAyYdJErJR6qwkuyQrKZfPZx1gSCyXVNJ/VZI8wXsMNl6pIA9U9a6RKqwRAxKKnFRaSES1nNt60ekg/qrUTJHN1mJ4KtFgycZmq+Wzo8xc4HAoHcZw1Nx6iXNKXlFlLiqIunHLbc5ww6UNCySZgtq1a7dt6evzSfeLF751JwEQ0qh7d++1U+yuOnjQvUFsUActDovOlSiscdA3svZM/MEW5DmdM5PNuIqk07a1d1iLPFLstLuD91wVwidUOesVeTetzobzhNlyf4jFAQ8EvjnbInvt1Mk35KDsUEdYtPPnLvrQx8UL530Mj9Xc//CP/2CnZLOxmZqhFi+nAu0N2BhHpe5+Hz44cfbz8GjArb8VqPK9ClL6ZYqZ60Y5BLBFwIVXZb67Wn3w8L5Py7jDoN6naHrfHHDM+dHLs2Ko7+yWl0nPBzRIKTzRkqSUr6dDEgFCbEI1eUKNU0sj6f2iJCgSEBWsPugATCBFdcxJpdNDm2XIM8frpeOjOb44U2VWOmDQ8VcuuyPKUVUmf6Z4OhYFOCrAitxheZ9TkkStbR02MLBNUrfOLl343r678J2Nj4655Dx08JC98cbrxvgW42bwDoyVUbuWT5yLrPPBX1Rn1r1eVoIECVPl0oqJeWwz0uI5HxlkuT1L0vvkRaJmmcfOytOdnpqwBanbjrYWOyDn5JDUfav4MDYybGe/OWOff/a5Xb50SUKjqPIdtN/97kN7Sx1jh6QcYKM8Div9C21eLisnFW29WXi8hKuM+Ugqo7oMrvIdga1sD/m7IQGXAVKPYeXqQ4Huodz0jHuOgo9UkQx62XOMEZFmUZKO8bkiRql4ixeJkR/mYAU8DH4BzgTIagHM5xDceZAk0zuFdFZI4DtMSMAVK6j3EwdVjWPCuF9zqtGaG+VA1KWkigCbUKayIxYBEgH6GQvKYIAoJ3EKQgtj0rNSlfdUr6bmVnl4W+QR19vY8Jid/eqs3b19x4dbWG3x1ltv+pwn42TeePwPs0hbIeSLhary0qh0JAGOL1KiKpkSA2g0OBKVb7UwW8IcKk5I2KBT8h1UbCvk6+NITb4NMj8z7czbJnuRT6dihrAD7PPPPrNvvv7a7t29q3vVduyll+yj3/+dLybYMrDF6huYvw0jEaHNVUgvZ+CDBy+112bTv79OpT6CvABKNIRI69eACga1yEOcnpmxkdFhl3LMq2K7+Q9aqPKoCxwJeihJIsWYV2UEflXOAdabIO1TWwx1rGLzgECBi7lXPFbUI+qzWtd4riXFW5a6yC6lXUIidfw3vlZqJT2arbGt14o5vVddazV4zORbDlDoSiIAEUnPqDNxVDLLyM6a4tsbUlPbtm6VZOmyJUmas9+ctxtXrvvXh9i9/s57p+ywDHNsNn+fThIS82u3e8UnbDFG/pGIaAu0AV4uDhYgY52cz6OKVyzE5IuWSDefF9W78JRd8t3dbOGsFYukXRYXJOUy3pn55NaYHJsfL1/2b5KcPXPW0+zt7fUO8fvff2QnTrzsA8iYAJQNqUrASYgU2v3p6FcA3OMJJvBNEhbq1SWSvooV7wgPMqz1R1UykS9jmHX+YiSN7KtCcsyZ6kL/WC8XlkAxqxCA5nYUvNYzJOGqJCHbUKsRPQU1HkueFtUgUsdVpkZbLtriElKCpT5SfbLpquvw8FQOvRLABrwdWxtId/inOhNPWfqA68TUpMBR5XYbH4FhwPb0F1+oYUekwlrt+IljdvLtk9bdGwZL4wCxXgpp6c/5yD/dq4xDZ+UaJ4BZCsbeABxjaxkBjTVyM3Oz7hQwE0CnxTveunXAB5WZG52Xt8tE/PDwQ7t8+Xv7XqqTuVFWlmDKHD58xMcB8UYPHTrgsx44JpSpKMACNs59nFJHL+tfQM8NcOGJQCLGsdGmrbVd7n6zu/hj8oJwICCA5hWS6kHy4fLXRdCpwnyRm40nzLfSkxlB55zJaP8Yi9t1gE0AzAt9Enw1UpO17hRU+/eGV9lPocC3TRYFwGKpVrZJuzV19MkjbHAwAwDKG/4HoJHWz1RQL6sDTpcjYyO2IAmyZaDf5znxRG9ev2lXf/xB0iVvBw8c8G+zbduxTVKU792FlS4uwQQmqFJd/YyfoSBOjLMh6Zgt4Eg86o+TMjU55VNhLNJkaOPYS8f8o9KMl+Fg4OWOsVLl3j27fv26zxoATMbX3njjpH344ft2UrblrjXnQOVCWuqvEmyU14UDfFeI9LMyb0LPUcLReHruAMHzrPWdWkxiL6qRpqWKlsQQ0gB0zlzFZZUHCzrZcYVwA1ws2MyJuaxy0AuuGl26ydh3yYd9h52neKsCXXURR0I9UkfW0QHKQo50pAYzJaknNfxKjfUMbLeUbDryIV3KQjFiWCPqWXlD50jtYZkIRXWK/fv2u7QYlRF+5+ZN/7JQm6TSyy8ftxOvnhCogyTHhKAhiYspQa/ifrR9OUcjeHZenpA1HiHXYZXtQLDbxCfS4l1AiznC2rXXX3vNN7ugttkxjwnD+CCrSxgE39Lf7xPwDHlgq1HG3v4e7+x0bgdZ2Z4gT5eyZbB5HdAuZSByn+Pj6Lmr1DCSj/5nwLfOR/xhGA3FytZpGbQ1zjSBSxVhE46vkXcRrorqPRYFYsOkZZfxmTDf+iZDn08+uDOhgNos5SQJBaYVhVIGzzQnb1U2mv7nB3RWBLKSwMfSduYY+7r7rYkl3bKR8G7D9FywVdZrFs/Ik4BUUmMuLdoUS7DF9C29/Upb9RkbtWE5EHzte/u2rb5ubIsAws7/IMkk0akXDVVON4BGUrPcoKTHGBnxAQHvsKqGRqZjIm2wBbfLOdizZ59U4mHbOrBV6rvdh0ROyDFh5Qhr6lClfGmJjdRsLj927JiA9oG99957dvzYS76RHftQWblQoCOwscen/VSOCKhYNkKk+Oy5Ag56XIYrMvhZ4evrsCisAMKHjxvY39rV6aPf9EDWYjE/KGyK/XpPlSdZFg8G8AlYesCPixRQrTqqM8rOQ60IXFKnGFVuuwl8zEIg7fKy4XA6QsJ8mw47ENtEaUkSMkXTrMZr7el1Tzf+3pdSCu+UQbF2LN+iY4xLleEpMiDK6l2fCFcDT6kTAZjDhw/JgN/jMwtrr+sYwBZAK6aUQb4egWsakw7JEi4A5vsMFGL+ECoTjxfQ4KVid3ULaPv277XWliaZLGmf07129ZqrcdT7yy+f8O/79si54UuZvopGfERbUIawxpEMaAWKE8AWVajHKZclAu5J9FwB5/OWCgzyUmZ6UpUqxTfG6I0wqF49b0nSwkEn7xN7r1BiczWqVrIJmw4VK+mIZGMogI2/SKiiQIO0YrwpLGkSWPQeEpUjjPRtiHqO+gWoBJwMPNfZmVlrbmyyns5u5cVvN9apgKj3sk6pbOFYTR2xKYelpvAoUXOM/OP4zEuS4PWhdo4dPRYmulGdCkiy0IyhOWlEjt5w3FTdYmMjYYhNOvHaASdC8gFugIttxzsM5qIuGX5hPR2rb/hFmkvffSfb7a5/BxhVy+xBk+w0QOQ88zzJWkclH50VL0YFRckWgbYRhI+jyMnnQnHIwyWW/nD1w5BAtSVqk7Z7+x77r//rf7Pf+TcytssrLXnPnJ9fsjm58IvpnOX1bk0yaY2tbdbS3mUNza0SVrWWkWRbFPAWGC6Q6pxeytis4s+ThiRdrjphK4mUZQWuhUzYVMyOsBUZ11X5nFXnMpaZHLORy9/ayKULtrK0AMcDGqJ0iwjZwFMkXFZpAlxsTWY/4hJ5fs+qRWVsammV1GG4BbDRaCSHag0hJu3PwqkfMS2AImBCA5AXAI+NTidiJTGOFeNu2GbMatDuvT6ckXQVyue8bt684Z+45/OprAZJqqNjE1NWOjbTGgBNeFa51ZHUgQLIQ4eIFIAZmMD9GGKZHkfPD3CUxdts1bKoNhWQj9GgXh14KmxRIhDV8MF7v7OjR15yoxXQsbsrvZz133CYXxRQxCC4klADJGTk18vbrW9usbr6BitV11lavXsmnbURAXV4btFGdZzK5GxBvCsm6i2vdwEmP2qG6i4xIyF1yDrYh1ev2A+nP7PizCR6NhScskdeVoAt3uLoklLArlP+zQ2Nck6wveS0CKzMOIQlQiKXlkiQdVVE+Jnnh9TSH1nFhvVrdViGirDliIHTEYcnKAMAGX447B4/MwcAC5U8PDxsl7//3gblmbLymHld5nEpA/z3T6CxGFZlQwPg7SIQWDIVx98iRbBVgoty0yEoy5PouUo4iLKvfdGH6/IfisTvqB4Ml7CPFS82I/snK7Cwd5OR9WmpC1Y98OkDpncSyZTsolZrlPNRL3VYrYZdkSrMKY9F9d6RhUUbEVAnFXdkccmmpXqzkgYlxcvqOfORBUm3GqntlBo6Pz1l49ev2+S1K1bUeyvKl8+LRnhhBtDZ/UoFpv8jHFDRYXM39cDuk70pqVpTzeJHNYTqi4wooM71FIngS+krGo6zIOtCg7KDKkqWwB0FGpsbDkxiS8Lpj/lZvmjEerV22XIs4mSx5gjjbQLbTz/95NNdfKZ1965dDhBvAgU0j6t6/QM0ODKele45wPQHqCJxj+sIvnjvaeiZA66SgZsRBeNnjxh7CpyjbsFYZk2anngFUR+MI7EXgXlKVBZrvHzwUsBZkspkOAQngqky7KY69f4qACfnoiBVllWPTSvNRaU3pZ47JuCOS/LNqgenda8I8JQfEkVGjBXTS5akkRfm7cbFC7YsFVuN2yvJy08FONq8iSVNVCZhR1KGOvNI9iGbuJG+Ogd04csCzBaw11bPlIQelYHmVV8jB6DyiLMO/rwch7HK8JGgADAn8QuJxHt8kJvVNywLT4offXJ62lra3CZlr8S3Fy76p1mx6fBimaYKwzC/JEweZjR+RooaARbpUedPoucu4Sh8Va1YSs5eTrGQhhQf6ansrErWhFW5TY1Ium6/52p1SapPEiQr0DAOB8gwoBkeYGLbv88hm2VFhn5WDcdakxpJy5JU7aJU24LenRIgRgXWSYW8QLmq+P6jwAIBP+lYrwZLiLnXLl+2ybu3bDW75B3EVmQGrEqU8X3hatRZABLNr1e8/DkBOqeyIQwADQDMqdzsHltKF1RmwVt1xw5jiMeX0pcZgS0GEKM9F1QuDc9KXfbs8ntXyt6HaZAsAABAy0MeG/exNRqevRKskZuemrRrV67ZN199ZdevXfWvhr777ru2f99eX5b+rOlJgibS8wNcGVyh64oi2FYwrpmyCj2YhhJs1PAN1pxqsYZUk7U0yehO8bucCam3kgAmp6G+WYYyY0b8joCu5W0BugbZcimBbFVe7DINLamyKKEzr5AVkJeV9mx+1caX83Z/as5GZxcUR/ak8kmoIdg+yPDD3PycXTx/xu7cviouFeVNM97H3te8VKNsJwGHYQPqQamxq1izhpPD0Auymh/BTSYbbFkOCr/KzI57ZkOQIAAKaccqD/+WivL1MUf/Ji9SHumlTiPTgR/naJBdGMYEw8A5H7Oh07Fx5t7gkM9NsygS6YU3z8LPL7743FUp3j7f8Xv77Td9yXildnmW9DSge36AWyMKVQ6ADtXgjkOw6/hjOCOlhkrVN/mYWlNDq3V39llrU7tVrdTY7m177OD+w+qprdJPMI9WZ8aBxQE1MoL5nc8Oa9c7iVSbFavrLVOqsfnsik0tFmxyUbagJM74QsamBDy82gkBpSCQLklizEkqrdZKyl2/Yj9+f96mxgbV+GmlLa9tFXuSz/czJRUYDHCam5sEuKzNyEPk23cMavPLLG3yprE5x8YnfYUHHAegvEn1UYuoq2Aj8Y09OUkCEnUBeEhB7C2eYcNiuxIX75Ef12VnPYPgbHRhr4EKqk5y277+6rSvZ2ORJrurGOBlEzPbCtcoFP+Z0pNA98zH4SJtqtcpCwWqeEQ8tw/8poKDrtqXRw/dH/INHWEinzX+wc5777337fChI1Kxaf8RWgx7cdqHOTitqan3Xz4+cvSE9fdtt87uPmtv73aANjZIAkry8B07Wp9hDL5rsrCw7E7HigDLopGCGnl0ed5yVSu6Xy9Ps9mS/KZ6FbabgC317d41OQtxtUqLifqFuXnbtpV1Y0mv17I8YD5Us5xZluRN+W+O0rGCjV52AMr1prEAEmqVd7GnyCeo23Af/rFSemJiUlLsgc+N7hDYGFTmJyVvXLvuq3TPnDnjP763e89u+/1HH9k7UqfsZXVeV7ZNxemzosfZdM8XcCJnsJjmf1wQTUe3XXR020V/2CyTk+HjxZllqSNJHaTY1oFt9p9+93d2YN8hX91659YdORLLAqIaTKZgJlsUmFJ26OBx+9//6/9hr736th0/9podO3LC9u09ZEcPH7NdO3Zba0unq7zGpjZXo/xWREKAaxQwa3ScyS7L4SjacjFjOUm31k6p95aUpGdSQJBqU7mpA/VkRQtr+u4PDvpudH4tuUvx+UAf0mp+acEejAwLOCvWw7c5UkmBA5Uq8EqiBpWqzqR7Pp2k9CqNej5gw3PfSyrw8T2S6zduSaIWfGfVjh3bxTGzhwLgH/7wB9/nyh5U5ql//9Hv7dQ7p4L0c+YHlitBP38U4MpRnR4R5bH0qPZ/roCDWQxOAqpgFKuPE09BbeENgBpBcjAehxHNj8tOqTdjB7W1tNrbb71jrxx/1fp7+GB1td0U4yflTfpydEkrPoxTXZW0HVv32qk3PrDO1j5raeywjtZu6+7uty19A7Zr+x55a0ft2PETduzll23nnv1W39xsQ6NjVpAEbevvtZbeTqsXwPgQdm2y2tq6Wo3fdyXUCTBBuqk+DHaoCgy88lsFIw+HJWWu2dat262ru9NXM6tgNjM/Y9Nzs76cqKujQ5I25Qsfvf7qSP6FARE8oePxUUGAhhRmEzk24pLq9uOPV2xIPGGVCF9a6u3r8kWqfMb+Pz791M6fOet7J/hC5d///X92ybZdgGSGZn0Ju+AZ26d8qKRKsEGbRHkq2gwDvxrgoI0ZMvzg6gJ15DolBGeCGlD/e0NSY+ZYARy/lsf0EEbz0aMvqbe+JzDttOZks4xvOQAz0zY1NW4zc0whqfGtzvp7t0mSvWwH9hyVtGNnVq0lpULZBJ2ok/crJ6Sztcc6u3qtq7fXOtU4jfLsbg4N2sTiksmAtHY1ZEt7vbW0Jq25NSVnpNGWMku2yC/oCXQJSS8fdNUfDYRKTchuY/70/LlzsiFbfL0a88RJgWtFdcQRGZN6zQsg9DDmPJF2bEimWSPoYAv8Qf0BOGy/hw9HfXfV1NS0zIMOeZt7bGCgzz8s88Pln+yLz7+wc99840uimGF4/fXX7aPff+TLjui8rCeM5SUvzwQqHx5HTxHlkbQRA88VcLHoDCiiRpbTGfVaNSBjXSLf7e49PPRydorznTNUJ0t+PvjgQ6nFferdApukGfOjTDpnZB/xS3rzs/PW3NQhCfiGnXztlHV09CqO0lQ8VC65s4DAv8jEhfKSvJXESlljW7st5HP2YHLCRqamrDZVI3XLClsBtSnJOgMH20J6yX/jFQCmkk0+s+Ck8japU7AcnklyVBoLC9q7OnxhQlOLnAoZmHzmfkISiG+FYALQ+Rjdhx+M2fl6vyJDKfwQXlYAnpOtNuxg4xMMTEmxEIBvkjD29t13P8gb/dK+PX/eplX2nZJmb731ljrmO8aHplOy24rKl9W+LHBda5LnBDioEgfPGXC0C0Zv3seNbsubundvUBJs1plO1RjfgkH8FgDfH2PCGXrttdfs1NvveE/FE0UtYGR3tnX6ljh6+r2796V2u+3dtz60k6+eksSpt1pJTD7j4HATKJjK4ftveHx8AManiJQOezS37dot1bdgV6/fcKmZzy+oLPyua85/27U2mQIh8lJLAnqjNcsBaWCVsP4YW6PD8G03po++PH3aP6XV1tFuW7dtsVRDk/9iM59PyKsDzarOD2TUs+J5amrWTQacHvbrTkxMCWQP7ebNO7LXbvsMAYPg+/fvtQP791hzS6NPYX15+hv7+OOP7cqPP0pVL8sL7bd333nXPvjdh3ZYnmmdLzXCwZFaRqXCSNpE/HAY+Y1f0sbbj4j2F1HEQpU8HjTCr0aVoOOzoWxNu3P3jl3+/rLxS8YslQm/s9niG35Zp0UNWYnKR+/4zCfzfNgh/CR2Ppe1fQf2y355ybevsSnk4qVz9ulnn/hy6W55pP/b//Lf7D9/9E/WqAbOpLMqQ7XSEDAEiGChyJYR0zHQGVOLn/pChV29fsU+/+ITu3jhC1tevKfyFCVNWq29o8fau3sk2doFthaptV7bNrDTtvTstPamboEf25PNK1U2OjZl//f/9S92+YefpHobZHe+bW+8fcr6+vvVYXI2J7ANPxzxLxPxRSVf64azIDuNJUIMhQASZlv4fkh/f7ekNR+gqXepNyjn5OLFb+3s2bN+Do/3791j772rfF59zXfEp6TKlbDz3dtAISzmpD249kfPnZ4r4CalTvipHiQXDLtz57arS+IACsaIWKaEhOA1bDLULfOENIp/I009FoayowgQjo+P2c1bNyUtb/k5jsnBg4d9rRdfTgfkDIHwCy179rD2q0fgbnSHw4cZBD6fLFegobMC9NDQHTt34TN1jAu2nJuQrYixzQcUZf81t8k267KmxlZX2X09A9bbOWDtbd0y7PkppjpJa3mSt+7Zn/70iUBxQcBO2psCHR+d2bVzh2/lY0HkrOxOfsGZzysw2MySJmw3zAQkJVsYAVxzc4Mkcsa/mHn16g376acf/XMROAcsh2J24c03XpcGeMs/boh3jE2CV+zDIGgD8YW/wOsXhDbRr6pSI8UKMhLPriIA5WNMYgSECqXBkW6474yGvyRAHTx4wOP4ljipG9JhXhFvEEcCaXlN3tnDB8NqtLQazPw4J1sOlcMHY7799lvZP3ekrtJSSy1uUAM41LGrGwE9OCpB7TJbgTfsP+c00CMvUPFb2gX8akknSpvw35uoTzbKNqwTQFkYWZRz0SHAJQVehkkS/v1dPruwtLBkN1SOO7duu9RmrhWc88N1/FBbf1+39W8ZUH7hy5XbmC1Q3mySQcIBzNHRcbt8+Uf/yffTp7+0K1d+8s0wgPHEiRP23nvvuMnBcnGGbeCTDzOptJxXDsZyHdvjRdCvLuGgWEF6HIABdCyZYSMHR5Y+Q2xPYxd6+GRoi4Pqiy++cHuPlcAYzbwbP52A5ONdDHRG+JFUOBeHjxz2no+NyDOkGgDm2xj88BwNBdEQsQEoG2kzyMwwRLGUka02b4WVJUtnF3z5+ML8svIwXyKEtysl7Co0kai3bfKcmW5jQQHL3pGGKo4PXP/7v//Zv6s2NjYuSdjhH37esWOnwLXVnQBWAZOvA1+sYr8sm8Cp/71BPNMpX64+Ojpmi0uL1iAgbts2YEeOHLXXXn9Ndt1+62J3Fd6/6uKDxKqPe6Xl+kHx+CLpuQOORoYRjEcBGAIj58SB8azPByzEBUxxUpp4AA6JhwRkbT6fJ8UjRBKwHY6NxRGMUTKishkWwOgmXUJQ2aHnR9BBSFreQ/qW/APUGdlSsnskK3zTjkIYK1R8gUNFDJ6mPGY2UzPXGSfgkXIJ3cfZYEaATzycO3fBl3jPzS0IkMxetEm9tnrnog5uUypRyoxEps7s8WCTEXkzuExn5Avnx48f887JKmn/9RfxlLrwvk68jNSFY+Q755XhRdBzARwUK07vozdDlUyoJOIgCVkcyTMag7jcA6wAhi1u//Zv/+YfzkNysRICtULjxTSIG895nzlJjhDpRkkAxbjcRxnhSBRLeQEOFRme6an/z3NSIak4fujL1omh92nokG6YhSDGrDxNVOvFi9/Zj3Im8ETxPvFKSdY305TLhN2KtEZa8aEYVnrw0T/G1FhedOjQQV/X1iV7lzyxayFKSb6xDBwjz6l3rCPPCC+CnivgKsk3yZSZEJnDNQyKqo0Qgcc5QPMVumIgcfjoHioZlYnthySLTCUdJBZxSZ9nG8sQAcfzyk7gRGPplCvuedC5z4P6sMI64ajwyQryxgaE+Llv3vG0BTqI95aXM1Kz92VXDrp0vnv3rqtMgEfdyJGOwSpcbE1+aBepdkCeORtfevv6VJfQcQgRVICa/aWVJeN5JZ8J8Z2/ecBBlaCqrHgEAvfikTgQz1G/EJIuMjgCL6YBYMKqivA+zwiVjI4qs5LZvB8Dz0mbc8boHGwE/Qf4wJkeeYDifY78gDBlQp0yg0Acl4SSVJQDMPh0mO6H3xXLG7u82JzMflE+MojalCfidUG9sm6N+VC8d+w2loWzCiWk6/8LYNSFI+XTOYUpU2WHggfUK/I41vl503MFHBQrDMVKwxQCzyJzKu8RiMczmMgxvgfIYjzeAzQx3ZhXBB8NuZHxEXw8512IOD4ojDmk69gssT19Bk1HrpXUGoUZE5VD+XD0RwIQaQO8UG6GKKRClT45kxSD3ixWYDbAxwcpo+ICuvqyxKQcACwO5UTyuvqfX7nnHesXeRX5FcoReEkd/Y3KCjwHeq6Ai43sTCpXNDIG0EAwJzKDezyLDOKIKuWcEJkHxWMEHOnwnMA90kFCxvcIkTiPjREbyBuP+SzOlHQ5eZdovtpc5xST+7xH8bH35G/4s/i7E6EsTOXlw7kcCwBGR4n1BC7YYR5fcVHbuvB0eIeswzBH4FGEV4gRJNvaPRWQd0KZ1j1VruEDx8i/SDx/XvTcJVxl5WBIJdAiYyLFuKhUnkfnAXBA0e7aSKQJc1Fx2H3E4z0CaUYwcl5Zhtg42GSsqEXChDJ5+9PSug4B4hhW39KwdBQ1e8CoKDQwaYcd86FuhDj8wTknAeDr5E6D3iN9JCHZBcCFMoc/cgh1BaDBeQnljHn5swq+wjeuN+YHEed50HMHHBQrFxi+Thvvx+sIsNgrNz7fjGA28SLDIa7j+ca8oPV7FXH1ryKKUzmaE88AA3HjfQ684mnzTFKLvyiRwpnuE9Pf8TM/QqjfmKWnq2O8hkKsQGvxyn+VVFlfaOP1Rnrcs2dFLwRw0POo3OPoafIPAHlUU0f6a+qBRA3prpfjr+XH+nsbAffX0K/dLr+Urf8/oUrJtjkBCiQrAWcgnhN4FkETj09KbzMSpPEgyuebEwB4XIhUef7XE3x5Mm/+enphEg560VIO2rwMsAQgALQIqBiP45PCJlSZxFr66zdDOTa+W3nNOfEjbYz77OnZt4/Z/wujwA8Ydx/ANwAAAABJRU5ErkJggg==;" vertex="1" parent="1">
          <mxGeometry x="407.44" y="480" width="72.56" height="40" as="geometry" />
        </mxCell>
        <mxCell id="9ciRj2-nHP8VVuhVhLj_-51" value="AWS" style="sketch=0;outlineConnect=0;gradientColor=none;html=1;whiteSpace=wrap;fontSize=12;fontStyle=0;shape=mxgraph.aws4.group;grIcon=mxgraph.aws4.group_vpc;strokeColor=#879196;fillColor=none;verticalAlign=top;align=left;spacingLeft=30;fontColor=#879196;dashed=0;" vertex="1" parent="1">
          <mxGeometry x="140" y="270" width="580" height="350" as="geometry" />
        </mxCell>
        <mxCell id="9ciRj2-nHP8VVuhVhLj_-3" value="VPC" style="sketch=0;outlineConnect=0;gradientColor=none;html=1;whiteSpace=wrap;fontSize=12;fontStyle=0;shape=mxgraph.aws4.group;grIcon=mxgraph.aws4.group_vpc;strokeColor=#879196;fillColor=none;verticalAlign=top;align=left;spacingLeft=30;fontColor=#879196;dashed=0;" vertex="1" parent="1">
          <mxGeometry x="161.02" y="365" width="348.98" height="235" as="geometry" />
        </mxCell>
        <mxCell id="9ciRj2-nHP8VVuhVhLj_-4" value="Subnet" style="sketch=0;outlineConnect=0;gradientColor=none;html=1;whiteSpace=wrap;fontSize=12;fontStyle=0;shape=mxgraph.aws4.group;grIcon=mxgraph.aws4.group_subnet;strokeColor=#879196;fillColor=none;verticalAlign=top;align=left;spacingLeft=30;fontColor=#879196;dashed=0;" vertex="1" parent="1">
          <mxGeometry x="205.52" y="400" width="284.48" height="180" as="geometry" />
        </mxCell>
        <mxCell id="9ciRj2-nHP8VVuhVhLj_-1" value="" style="sketch=0;points=[[0,0,0],[0.25,0,0],[0.5,0,0],[0.75,0,0],[1,0,0],[0,1,0],[0.25,1,0],[0.5,1,0],[0.75,1,0],[1,1,0],[0,0.25,0],[0,0.5,0],[0,0.75,0],[1,0.25,0],[1,0.5,0],[1,0.75,0]];outlineConnect=0;fontColor=#232F3E;fillColor=#ED7100;strokeColor=#ffffff;dashed=0;verticalLabelPosition=bottom;verticalAlign=top;align=center;html=1;fontSize=12;fontStyle=0;aspect=fixed;shape=mxgraph.aws4.resourceIcon;resIcon=mxgraph.aws4.ec2;" vertex="1" parent="1">
          <mxGeometry x="326" y="455" width="50" height="50" as="geometry" />
        </mxCell>
        <mxCell id="9ciRj2-nHP8VVuhVhLj_-2" value="" style="sketch=0;points=[[0,0,0],[0.25,0,0],[0.5,0,0],[0.75,0,0],[1,0,0],[0,1,0],[0.25,1,0],[0.5,1,0],[0.75,1,0],[1,1,0],[0,0.25,0],[0,0.5,0],[0,0.75,0],[1,0.25,0],[1,0.5,0],[1,0.75,0]];outlineConnect=0;fontColor=#232F3E;fillColor=#01A88D;strokeColor=#ffffff;dashed=0;verticalLabelPosition=bottom;verticalAlign=top;align=center;html=1;fontSize=12;fontStyle=0;aspect=fixed;shape=mxgraph.aws4.resourceIcon;resIcon=mxgraph.aws4.bedrock;" vertex="1" parent="1">
          <mxGeometry x="529.5" y="455" width="50" height="50" as="geometry" />
        </mxCell>
        <mxCell id="9ciRj2-nHP8VVuhVhLj_-5" value="Internet&#xa;gateway" style="sketch=0;outlineConnect=0;fontColor=#232F3E;gradientColor=none;strokeColor=#232F3E;fillColor=#ffffff;dashed=0;verticalLabelPosition=bottom;verticalAlign=top;align=center;html=1;fontSize=12;fontStyle=0;aspect=fixed;shape=mxgraph.aws4.resourceIcon;resIcon=mxgraph.aws4.internet_gateway;" vertex="1" parent="1">
          <mxGeometry x="140" y="460" width="40" height="40" as="geometry" />
        </mxCell>
        <mxCell id="9ciRj2-nHP8VVuhVhLj_-6" value="" style="shape=rect;fillColor=#FA4D56;aspect=fixed;resizable=0;labelPosition=center;verticalLabelPosition=bottom;align=center;verticalAlign=top;strokeColor=none;fontSize=14;" vertex="1" parent="1">
          <mxGeometry x="327" y="638" width="48" height="48" as="geometry" />
        </mxCell>
        <mxCell id="9ciRj2-nHP8VVuhVhLj_-7" value="" style="fillColor=#ffffff;strokeColor=none;dashed=0;outlineConnect=0;html=1;labelPosition=center;verticalLabelPosition=bottom;verticalAlign=top;part=1;movable=0;resizable=0;rotatable=0;shape=mxgraph.ibm_cloud.password" vertex="1" parent="9ciRj2-nHP8VVuhVhLj_-6">
          <mxGeometry width="24" height="24" relative="1" as="geometry">
            <mxPoint x="12" y="12" as="offset" />
          </mxGeometry>
        </mxCell>
        <mxCell id="9ciRj2-nHP8VVuhVhLj_-8" value="" style="sketch=0;points=[[0,0,0],[0.25,0,0],[0.5,0,0],[0.75,0,0],[1,0,0],[0,1,0],[0.25,1,0],[0.5,1,0],[0.75,1,0],[1,1,0],[0,0.25,0],[0,0.5,0],[0,0.75,0],[1,0.25,0],[1,0.5,0],[1,0.75,0]];outlineConnect=0;fontColor=#232F3E;fillColor=#7AA116;strokeColor=#ffffff;dashed=0;verticalLabelPosition=bottom;verticalAlign=top;align=center;html=1;fontSize=12;fontStyle=0;aspect=fixed;shape=mxgraph.aws4.resourceIcon;resIcon=mxgraph.aws4.s3;" vertex="1" parent="1">
          <mxGeometry x="529.5" y="290" width="50" height="50" as="geometry" />
        </mxCell>
        <mxCell id="9ciRj2-nHP8VVuhVhLj_-10" value="" style="shape=image;verticalLabelPosition=bottom;labelBackgroundColor=default;verticalAlign=top;aspect=fixed;imageAspect=0;image=data:image/png,iVBORw0KGgoAAAANSUhEUgAAAGEAAABgCAYAAAANWhwGAAAAAXNSR0IArs4c6QAAAARnQU1BAACxjwv8YQUAAAAJcEhZcwAADsMAAA7DAcdvqGQAACVtSURBVHhe7X3ndxzXleevqjpnoBEJ5pzEIJIKDqtAyZqw9vj4eMb22Zlz5j/Z/bhn5y/YT/txz9ie47Mez3i8tkVZskQFkqKZxQQSIDLQ6NxdXdVV+7uvuoBGIggQBimtLnXxql69eO+76dXrkvbffzTm4mt4BqABoQqm61eg/Y8f1L9mwrMAoXq4hKnGJWj/9H33ayY8I3BDJUw3PoPuseRr3HwU8FIy4asA1K+PxecbvgJMIJEXL7Il2CqzBJYUbOHmwldEEpau/eVwIX0fR+zNZcRXggmKwOsGf/X7uPnwlZGELzN8zYTnAL78THhiDTJnGZ47+PIxYbHqJl1X54OUcFiWuKQBD3wWaXymUsawGouthk/Q+arwpWPC/FrmFf9ztSZc3SKay2C9hSYcw8tzFDa8ei0KzrfZgg0g7FrgS8QEf9kR1VJVaxu2axMrsFBEQ8svwsLctQXv2mKehTIczWQb0kI7tKivlrhAW5/+s0WwhIHrAO2fvu8s3/pzBfNDlEnLCna5fIIRIJF2EIrWoQUoDYotKwAJ67WikfYG8pM6aoUADISXJ6QEeMs+WZqniq4ZqPhCRUw3LnwZmLBweKKzRZXYWgM9Ww0cOxNFpgswQt7zx07Gp2sTuPh+GYM3bOjNCPkjCsF/SFCNLKZs+/3CZ18dJnAUai5zqmAl4Hqnnrf0Iva/GMBf/qgboRizfTquJAzyzC9jA396D7j6xwZmRilFTpDZgUXUbL8WWHi/eJRLGbEkYxE8b0zwGaBgmeH4jJGZUo87Bm1AYAaHXwnge3+/nTYBePBwFlOTVRhumOUMqeTVaYGDBtLZELbuTCMZ13DjA+DyORPjDypskirJDbKecEn68usuR8gVRsrshSNfrm47zDNBen3msPxwZUo++tCWp9n824TDld+oAndvFPHxe5P47A8FXHivggvniJK28NNzs7h+sYDpcRtNSoLXqohNqz1pspUr42lHH5Yfpw+tdtYBzwUTHgtzMxcqtSY5Z2QJvDBIS7PgojCqoTgSRGkkRAyj9KgNRwMojAOlnA2HoqOaUjpEXbBNuqziLRGV+yopmSyojAgZ5hl+D9W1Ki91pQ2Bx7NpJXj+maDAn6QAr2XeMl/+UTQQWjRD0O0YdCsJvZGGIWjNo8q3oywraqeNWCrOaFDF1YlVpermMLAIVT7dW6auUVNxh6tZbESYsn7YOCbIKFbDDQUyoHUloJGwGm2B3kK5Fld0DuWeDumCKYtEkYi2VqLFmEVdmyZOoqZPKKwL8t5UOAFT5cn1FExMM97IM94gQ6gaWw224ZPDxjCBBG7vfiVcnRF+geULqlUvqdy4bSrJhyWdLG7P25LwgSYeeqiJ3m0RHHgxgmOvRvDCq1Ece0WQ14KvhpkKevfH5Jp5x4m7j4SQ6iJjjfnoez2wMd4RW2if3EqgOlqu4Fx9KdEazgKCeqlSvfwj6qARnMKhl4P43o93waoAv/nlGC5/XEXE6aLvH2cxWV+qgkotPY/efS5On+3EgWM67nzGWOFcEaVSDi+9th0HT+hIZVlU1L/Awq7nwR8/mx8dpIf1kYtbnxdh16LMkmBlcYWV4HnzjhR1iXNLXe7FALanrecbCGJctaCNdK+LcCczGIEriqgxEBeDny9aLQrEe4COfkpXUKL19Y9tQ5iw3HiXA4/YogQacAMMkiI1TrzsYbTMe/rs6p5LW6HkM42W1HM3VKMUEJVBFBdVGNQOayOEqm/Y0MIuDDJgbLSM3/7HIP715/fwrz9l+rOH+JWPP3+AX/7sPv79F4P46P0JFAoNVUdnXfGm1tp3OzwdE6TfBX37GYtRQNYKJ63bCMeb2HYIOPGmhhNnNRw/qzPVcfxNYuv6xFkDx98iSno2wGfE1w0cOKUjmGKwptGTEd3BFaATxVt60sXQDq1Rqcr5nIUbl0q48nEFl89X8afzNab1NmTepxXcvWmiUpG5cElJp74krxMezwS2qzTESsgi3sR589hBSGGZKledblH3GnjhGxGc/UkUb/44gTf+NoHXf0hUaXIO3/hhis+If5fG2R+n8BbLfuuvo4hlq/RM6C7K/gNBmKCvkQhqxKzXXstwQ9TqnQi73cRehAThYRA9TAW7EUCG86erS/Dqe1RYLzyWCU/X9HJAHaw3EU0YCMcU5VA3gcIsMDvJldiGs1NAjjhDnJoGaiwnejiY4doNmVyB9M9lJcgBwhZFlZuq+lkDSAVB1Qbd22aEyHhDIQ18M9FCuSY6EmvINsc82/10vbAyE9bVsprJMijAVIjGVNd1IqPcmouHt2v4469H8LufjeDdn07j3Z9N4/fEd386xXQcv/v5EP7vv9zEvasz5BibUEQTqWJb0qTwkuiR38fHgT+e5UDqcmDiWZEhkiovS6XevcLHr901w8a2tgooFpARsnhlujZXd37cxYNrddy50MC9C24LHYX3LzRx72Iddy8VMDvMwmSCIrwKxIJomgFUcxrKeWkrwHx/E24Z8Dpf+nwJT7wM2UfyWertKcn9fJ6CJXXXBxvKhIWrcR7lr4CfqitOQNSHQb+QIQ91sOjiLPWwl85jF7EHmhmDTUfJrnBVWlEYThK1mQjuXyHTrsueUFDtoMrKVQKnYL5HbxzyzO/b61+VeRwxpRwTr7x3rco/rs4aYUOY4E3FG5m3Whailz8P7dePBdHxboABaZQ2I4ihm8D0PR1OJYmwk0VuJIL3/6OAD39bxOSQjoArQVqAFYXg7WNgjrTlcLrz+3Fe++rpQvBzfKLPEV+g7Vo9a+HTwBqY4PnD4qM39QpsnVGiXiDmGY0WFHr3y6BWItKbUe911xLiCxNkLyiCR/ctfHSuhPPv5VEtGPRQwmg2NJQKFqNeEw2LxhocG/tp6iU1Rkf3YwpL2Q6r7iI35mLkFo3+mHe/VH21SLpoiHMM8W43FJ6QCVxPYgyNBvRoFak+F107DGR3AtldLtFZGVmma6eGRI/NurLz2PJqHgttz4UJTgglelDDg3U8HKyhXre5mOtoBioIpU227SDZ10S8zyI2kOhtINTBOCKSR0OfZUzBQI/BXbXUxNAXFVz9yMTwbQs13nsbe4tJuwK5Vxv2OmHlvaMW5z3QuIoZIZIBHVsdbN+fRqrTUJIxHy16zSwcOu9kpTkBupxVjNzPIzdhY+v2LXj5O0H07gauferg0u9mUBwJIegmPWa3QIy4eEJqX5+r2TUs6EEbwVgTgUgdkSSJ3xlFKh2DEaTL6EpdIamOStlEMVdDNd9EsxZFoxqA3WBbTbrJtEQaGdt0TST7TZz90VbseUGnfTFx7p+rqE4F4VjyylP2J/wZMdLnGIJRB317wnjtbwNIdGq4+nET5/9tGlY+xdL0oZ+YU1zYq77elPm3LgVs1JDsaeDMmynsOakj0cFhCf1XAzYi7mgpB3xxsYqP3x1Hf/8AXnknrJhw9VMXn/9uuo0JMhzp3FN/anvCkLNCdUWATFcEu/ZnsGO3gc4+B8EEiW4I4dmR1FXGlgldsCbVTZX9To3quHOzgpGHJa5+SmIzRK0YQdNpUIIaeOvvtigm3LvawHv/XENlKgDXFtuyEhNCZEKwjQlTZEJ63UyYV0etubfm3+razxQQddREKKEjmuQdg9XpYWDoBuhiEumhqNRH3g8KfsE5s4lYmoFWnN0xWFsMLdPZhpIn2wlUO0YFRrKMXcfC+PZ3u3GW0fPJN4PYSaJl+mgZNAPVaR2FMQ1FErsoKdEp60jGDPTuNbDvtIZvfi+Kt37UiTNvdZLwtBPBMhy3wbnSoLNPIQSjF96LBMidN445GviLQ+HGgvGdg//1v6k+eDNPgqUgRjWctDCwL46uLfTvp5u4+WkD92/WMTpoYexhs4U20cKopI8ayOcb6N9JQxrRMTZiYfhOAcl4Glv3UpwpTZMjGsbuV9EoUffT2MoARAJE5xuRBjL9Bg6cDuLIS0nsOx5BdruBSoX9jVbw8G6R/Zdw/1aVhrvKPqnyBIeqmODz8QmutJwc9DIoQZS8gQA6eoIIxamS3BBti+w+mejs5gqmyhwfdPHodoPxhwRmPiVaqUgml4URdCgBBnYeMRCKaph8xDp3aH/qjLThbWU8GbBdSni1Odpigpe1CBZyXGxCiEzYtj+B7gFKwVgD1z4pYvRBkfreRGHGIjaIcm0iP1NDqUhDTGO+92gE0UQAE49sGkRhQqaNCSATam1MoNhT9RixGjoGNBw6lcFLbyTQQwKaVC/TIyauflbClU8ncf3yGO7cnsLUZBE5EnsmV8LUTAGTU7MYGprB3TuTGCTTK/kg7Brb1w3aMh079kYRj9NONIByuYQq44/cmDChidkJSgfthScNAj4TPNtkBF0yIbChTJhXR2sBkRz64+I6+nssRhvO7b04fN6akETJq4JMVKcNCFTRvTOI46+l8OIb1LQJYOIB8PGva/iX/zmMP72Xw/RQA3ZdQyhML603hq17Mth1sBM79neid1sC8bSBYJCqxaJ7S0n54N8e4b1fTOH2RQbeJPqOw8Dpt+LYd6wXM1MF3Lk6gcnh2tx4hUjKzmwCrI8JCqg/nSAZQZSBy6aWwhDvJXJlnuhXCZ7mRFugdS1MUcwUFBeYwk5pc4M1ZAfiOHQ6icOnQoiQAbeu1HH+3ASuXRpBYZrGqBnG3t1b8PY7B/CD/3IQf/mDXXjjr/rx7Xd68dpf9OLt723H3/xkP777w0N4+ZW9yKQzjAl0PHowi4sfDqljMcVCE1t26zh6Jo6duwcQCkRgmbIrS5LIeFuLRkb752bFupmg7JQMTwU7ZIig2jIQj0JSriP1zJuC+tuqo/OZPJGShmKCXJEJRg0BGuGDp0M4eCKIYMjF3Wt1XPl4FrevTaFumth1KIvTb2Rx6vUOnPhGGvtPdmJLXxLpWAzxYATJcBRdmTh2H8jghZc7cPJbaZw524Gjr/RQFYVpL2Zw/UKOrnEZ+akm+rfrOP5qDN07OOYw9VP7S/sWIwS8xdK69pINg3UzYWVoG/kS4PAdnSvORWnGi1qrs7QBFiWB+jYQa6CHwd3B06D/D4zcs3HxD9Tvd2bVQHfu6yTxe/CNv0pg4CBjgQaN/90abl0ycf1jC9c+snHtvK0chsFrNaoZk8Gcg2OvhfHqX2Rw9KUedGajlKYKrpwnIz6uoFYGth8CvS/Q2xJ7JFG9xBL+dsc88QV8BixOnwYeY5gXgmeYbc8w0zsqzbgY/qKJapG+vBwpafepVcKJBBxE0y72naBaoXs6+YgR660yrGoYxRkDQ/dMqggaxqILu2mhe6uBV9/uRc+2AGZGgRuf1XD7+hgsy8bR4/145bU+bN3PQdP+Pbht45NzOXz4u4e4d6OM4fsVtiVYxMP7s7h5bQIP71Vg0yZ09ASQ6tDQlQ0hk0xgdKSIfK5K2yASm0DXgI6+vpiyMcP0suQMkyfdAv6chBMO9AANc0fLMEdomEdIh2dimNcN7JiuoMnVN01Pafy+jTIlomk51P0BEiOCgT06YxGQgEVcvzQJ16Kff2QAB1/qQO92oFEAzv86T5zGA0a4tYk0zNkEGsUYkR4P0SzEYc5kMDMYonQU8cf/U8SjG01EIpSmFyL45tvb0NOXordWxu0rE6jk2H8K6N0R5wJLQws1PPtEidgM2HwmUP87tgGLLqNdDcBpBLm+mpx8kJFwTJ2wnmR8MXS/hOKsSVcygUMnGSEfDKBuNXH1kzJVTw2jtxw0ZqMI2V0IOh30ylIIOAlikphGyMlS12WQfxTA7QsNfPr7HKWqzBgB2H8iju17uhAKRjEzWcb92yVUyk1k+wyOgSs6Im/uxD48TrVuHGwuE9ScRLwlJpDIlOKraWhqdbqVLglgKKm4ejGH0aEK4skwtmxLYSu9GHqbGL7XwOef5FGcYGxreQSff91IFdJCuRf32CBTDDtJ6Qni5uUCLtPAT485CFPSdu5LYmB7CmaD9uTqOKbGashkaB/2cXRRqhcGp60jAH922FwmKPUqnJDoU/aGOE3dooaqIZptqHM8zYZDWzGBqalppLtcvHAqRWnQ8eALGtyLJlUHq1tRelj+EXhpTiRsIbqScnrKTSajgm4Ks+M6VVwBZsXBHhJ714EmGk4JY8OTKIzV1fCSveIg0Dgbstv7JJtjTw+brI4WglppuoNkNox4hkud3mF+TKfN0JWhDidN9O+hvFCXjwzO4P7NKbgNLx5hRMcWhGyCAv51GyqG0GmgdBhuDGV6YkN3cqjOODAoDak+HfGUxDohRtW6CuJCMUPZhUjcaO3K/vlh85kg9FFSoP5CY6CQyTLCTUVAzYDZSaonM0hVFEemJ0rV4aKeZ/44PTEGWOpXNSoe8Qk91+jKwLISNMqeUJkMmB7x3m9H00H2nYShh1HIGSiyHyOgM4+2KUImfCXVUQs8D9wDOZUXTYQQjgToigKFggbb1tHRkUJ3bwccR8PUMFCbjSAAWlWlgsSLXyuIEx2ktxXF9Lih9osi0RDSHbQrbLk4S7e7SIIYGqLxEAJB6eOraJgJixeuN1GuODLDpjoql7hKbQ1hEigaD6s9pxzd2GpZ1IonBesBtRMkKswJoSYHBsjwYCiAWFwOoGow6/S2KB26riGWIMODZPYTbXg9PTxTm+CDv+IUO0QD8EKj16TLi2Fey8sjt6nIyIctDrYx8olAVJLG6VKyKmVL7aAaBmOSUJDqiG6zw5hd+mYRyZf+v7KSsBg8ssowqC6YRKIcFO2E1bBgmqQUQdxTg5Gqp6NbhGmjj8+ax/KFkqaIyjRIVSNv+xThm+Sw5IV0rn42yyIW4xGHq8Fj+iqwAXx65kyQFSo/5GvariJCKu2qFye1ep16m24j6ZCi/x6O2SxqERcay8VkWolsHgtsOgIWOroCiJLZZs2iMS6TETaZr6mI2mm6VH11qitRkcu3Npct6UodrgGeDRNkualF6fnzlaIJs2pxNQLpTjIhZFNdNFCvkmgs3tMPJDoZTxiyuSa+u/9CdA3LkMyTKFgP19HV5yBGJlQKdUyOz8KiqxSJ00FgtO7YDkqFGiVxBUlQWV6+N4anh01ngj9oNQHRu9T10+OMgvNVBEiYrq2UiIhFT6VCt7QCix6L7OvI++REB91G9XEQio6SCGFCOy4G5lHVqLNOlCIjbCOe1ZAdIKNpd+uzTZTyNTLHQlevg2yXSKSD4gyZUKc73EaehcRerq/1wyYzwSPW/IR45Rjqd8gSC8hZ0wi90GSaLqIWQIExw9Bt6mjSe/u+JHbtT5IJLCz7OhLZzQVTPlH89j1UDIB3YsNyK0h2adh/LEtG6ChMAxPDDArrOj0xA6leIMC+G2R6KWepHVWdTu1C4i8DqxZYHZ6RTaB+bq1kmWrAjaI8HcIMgyiNLuL2nVn0dHWgnNNw82pFBVH9W8M4eJyxw4BBlSKrVw6SiVR42wv+Gag5lNekfOafGIyk5LxUHAdPpBGgER6828TQvQYCegT92zqR6g7DJm+nR2iPSnQB6CYrCvu8FFQ5HLPKUDeE1vVTwDNgghg8QSESVzNBXoeOD2u4+4XMWMfR433YsStL393E0OAjTDysKb9+254wXn19C9L9pFa0ADdUJpEF5ZtGZIj67pGgnFMikwJluOEi9GQB+46lcPQUid1BWzDrYvDOBMbGppFIRnH0xA5ke+PIFRw8HGrQUJPQpIxP6yXQZrA3QBCeBRM8L0XOjTrUP65rq72bmYkaHt7NkUBURyTUlp1JGtCUclMvfTiJwStV0LPEjmMGXvteH3afCEGL52EHiUaJRJedz7qSkKZRhmXMwonOIrPVwqk3e3HyzQQGdlLj5Rx8cm6KzC2pqLizN4qt+wxld8IxHenuAJlHSZPf1bVxYUVibwAXNt8m6PRMUkEM7Ihi14EYerbEVcBk0x7MTlh4cMdkxOxi96EIDp9KIBTTMDFSwtXPZnDneoXxArDzcAin38jglbNZvHCmA9v2ppDdEkW6N4hMfwi9OxLYdzSNF7/diVe/04Hj34hT5WhUaw4uny/g9rVZ1OiNDeyM49jpDFKdpCTbTaaBXYfCzOtVr1dlh1VJmZJaYchC0dgIKRDY1Neb449sPLpTREe6A/tfCKkXNSyE/LSlTki7FPOGbaOrJ8w+dMQSQjibLmMDM1NyjslGiH5skEzrHQhiG4mY7Yoh1RVGpjdERgTQuz2ErXvD2HM4igPHYlzl8q5BXhRZuH6hiCsXZtlmBT0DMRx/KYsjJ5OMDTR6YqZySzuzAXRl47xuolZjvEBvSdl/utLCBDl3lGSZHUcMGnR5venQefiSvN5Ua0ioQYMp5zm7qBq2HmFc0McsdcpBg1U2MHpHfpnTxPQjuqU0li+/PoCtu+MIhjWMPijh3V8O49LvTYzepdfEaDfR72LPSeD468DpdwycelvH4W8AffsYacfo8083cfeii3d/MYVP3htDtWQiSuYefzmLQ6fTsEmBkdsuPvjVFD79/TTLO4hTCr75ThavfKcTaaozLSI2h0ZJ7JnMRCajJiSw2vJdHTZNEsKUhAmuxuHbeSQTaXoqQSS76SaOuRgbrMAsyUnQiNonys0UlQeT7Qkh3aVjYFuMEhBDOS+SUUWRwdTDBxN4cD+HPG1IvRZmHtTmn1lj3DEphrfEVT+Ozz4cwb1bRdqcqgoMewcSeOOdLRxTEnpEw8iDJs7/dhgj92qMV2qYmixQEqii2G+6K4hELIQcJbVeF4NtUxIMBpQx7DzE0TLCnuFiGbpND8wMc/zyjuNJYV4SNp8Jd8gEdQwyqFbcxKgwoUomyA8/OCtXR40Trlcb6tBxR2dInUdNd4YRZ/wgqihPik9N5ZGbqtPfp9SM2RinBzXKdkYHaxgiA4buFTA8mMfUBPU6/23ZnsHhF7tx+EyCsUICYcYMszMmbnw+jXtX8gwK6aLWgigxgDPVNncEHWREpjtItaijWK6gVDbhiuvqyA8fQyhMUYru25jhHFxLTu6RBqsRcg5Y8NkxoTjHhASZIEdGvLOocqyS+pvrSdcMlAsmCWLC0ILQqYc7+nX0bQ8ilYnz3kQsQpYFo+oHg+JyFrla81MNIifGMclZJnlf0NMXxY4DcRw51UtMYsvuEExKW4CLtlY1MTVaRi0XglWlPrfCJGaYkkQPS7a6w0ElidKvGOdaVWIIUKUxop+RIzyUhPEmg03OXb3pE79W5v4k8EyZ4B8IXswEgy2EVWXFCNegmnEwPl5EvmCrqDadCSAuL+l3p7BrVxe29HUjlWYEnEjR8EeYUn11xtG3JcuVn8We/Z04erILx17K0BCHlIHNjzuUEOp59tRFg97TmyLh0zT6smHYUGeODISUpJVJ7Eg4yQgbVIlRxGNRlnMppSRemdJabqqIW47xkKKrE3EBsPDzwARxA+VU8ziZIOrI/zymsEHaE2xaOioMokTNTDzkEm5EkKQuj2fkJ1iy10QC7dOx80gQe4+HsPdYGLuOBLD9AI0zjX+Gdken9zP+APjTRzV88u4oHtwsUI3pytPq3aqjo09DlEGbabrIz5RV3KJe/nBuuWnGHlYEGUpEzw4DHb0BWFRJ5XydEuAq6VX+rUiBGv2TAss+d5JQbB2NVyANyAk4T8ybJhnBFSj6ujDbwASlY5L2oFhmSGUbHJsOI6QhEGYdQ4O8hqjWqCqmTdyn+rt1uYi7V9n3bYteF0PEoq7GXS7R7vDfAFVUplveJwRhVqEMPyNA6n8DtbLFcnVG0FRNdE27txm0EQFKgDCJjkBd3kd4kkCW+BR4AmDJ54EJYph9Jph0Tz11JMAGWoeJ1XaybBPwv4bVwOxsEWOjJUyOWuosa25Cp1536Nk0KVXeD1WG7ll4RHxws4bbV4oYvFXDDI23XQnSk0+yHzlUYJOhZGTBQkJe+HcGkOkQ3z9CBtZRq1jKroharJSr6syqy+tEhhKxhYyIyGtSB7lchR6dMMGXhtb0VwWWajHBq/UMQWIgFQctB+oZmaybjC0aJBYDJRIsHIjBLkeQGwIeXK7gxkezuPTbaXzy62l89psZXPvDLL5gZDxy3YI5yYjcyiLsZGC4UcVceU8tR2DcegzTDxkj/JJR9AVTfZ5h70kNr77Ti4H9XBQR2bHl+nbimBqu48ofZ/D5uTJVEb0tqrvdjE8yvawU9CRqvfDMmbASeHxhREQmiBS+cDKMH/1jD/7mH3qR7aUX42h0YXWqKqqrelBFrG4tDreaUscftRrRTLU+QCgfBvGMvto4ZMAo1/K7CqdGZo40cenDIm5cEjVEG7MHeOu7PTjxSlJ9BFdOjMuWeyHHQPL6FK59XKf35qK7P45tezqV9yb/1gvPFROWTkNyuMYoCbKp173TQN8OqpR4HU2jhJ5dNt78QQJn/3MK/Tt1Mku8Hgn65FSG9yMV5TqqYzKeSm1oJZhOEbbL4E1Upnwjg8He1JCLy3/M4xNGzS550Ukj/MK30zjzRqd616DRLbbsGkqFKiZGavTcmghRsGL0yNTW9lOczNh0Jqw21PbnShrU+wGLC5SrkQ9t+pnqiwLBPDq21nHm7TBOvxZCdkC+6ljhKvc/hbawJzl0HI476keM+04E6DkxzqCdUhJBD8chI8bvNfH5B0Vc/6SIWbqyWbq1L72ZxaGTMXTKXlZajthHkM3SiaUjYJpAhW6taCJlu1Rra4dNZYJPloXkWQwLp6EIquyCpMzgqvPeGVAaNFP9PNciNpWakRc8ba2r8h7Kz3HTXSGc+U+9+O7f9+H0tzrR2RVT5b1PN4QR0tLqWP27/z6JSx+UaeyBKF3h099M4+iZTuw+0oUDx3pw/HQaqYR8eZ7B3ggZ3xSvyGfD2uHPwIS1DuXx5Vd+2mKKwOOaaPFE6XWDSNNgUI1ocoDbIEOFwVJIGWxG580onGqcej+Hy+dyKDIqDlEVHv1WHK99P4MXzyaRYFxRngJGb1rqhZOrfv2/flI+pmb7zJbOUgYvL1GaOkN8+aiH+rCHYLmVVhWqI+YLjqkI8VoEJLrU002tBtuva5R57aN8yKRKNSOvM2VP368jxPPbklTy6FLKCx35Np5qi+iPSaVsz2BqsB0JPzhzr535NjxGyA8fE6jPRnD/qonzv5/F1c8qKOaEWAbMio77txx8+geJPTi2KrnZ3AgmyMSY+LgyUORkwKylhZoIJBsIpmsIZqrEyiJkXqqOQKKhfmKkXhdKXTVpCXB4bdAwhtkGy0mdQEcZgUzJSzuJknZI2w1oUa7YlisuhHPIWI8pbI/5sj0e4XjC6SpC6QpCbG8h1jgWk/1RZYkEtNqRGXtzbk2MHJJfoAa0JAkfxI3PK/j8/arCy+83iHVe13DtYhVTYxIxy/lYGZjA46m3ErDXFqgJeah892Uy1dHEVkwWTWno3W1g66EAth0xiBoRXnpYUMe2Q/RmdgXUj64FxA9XLUuvvJbfniW7XPTvYxtH2dZRdw4HFMo7hwC2H44g1cfCXHQeE1rnKaQ93uvM79oSws5DUWyX8bD/7QoxhzsOB9G/K6g+76CJJKiRSDvzJPCg1aioJtDltVL0nHRc+bCM87/J4eK5gvpRolmOwtCTrC8vcloTWic88VdebFSQ6jfxre92Yu8J0iPqMoqkzyFvnlTZ+dJ+g+K66UEN8RTD/4qmfgj4/q+G0d+/DS+/HcWeF4G66aBRtRmdsoJQVZpRDbQuZLXqXOXRICIRA9W8jf/9v77Aw/tFHDvVjR/8ZA8lTUO1ajEKpmR5S1waWACiEo2wRg8pgCBXw9UPgMt/sDE+KP//BPl1j/+Fi1b3Cny1573MmZuXGhv/+qtA3a8VuABaHxiZ27ZYDuablhUj33VwSXwSg+6ZIcGSSR1qU3zVPgsHswSZ39BRL2k0YMBD6tKpEXo2Nl29dAjxuEYGsJcGl6a00/RSKm6iTq+jdc/ydlVHeRokmo5716uoFnQkIilk4ikGbByiRQ+H5TSmGvtegmzLYT8mF0NtFrj9eQOP7srLGPl2nmy7eISdB+/e+8f6tAfzKPecH/960F7vSYF1WtsWTywJYvh06lM5QLVlBwnAwNRRAYpXXf1dMhZmSDtUH3katglGpnK6TWyDbJr17Qgo3e715ZVdDjwBkR+P6KyvYWgwj2rFQiYTwbYdKSQzXCCBNuO/TDvShqB8TFY+w3bveh3TjzTq/qj07D30rtYAfvm11hOYl4Qn/t4RR64YId8eko+GcHnxXgxsu2FbDrhqlIqQ1c1VJ3vvUseo057RvZM25mClNtiD+PLyK50mfUyHbamyYvBZ3z8a2Ub99pb8XMUIPlG/c5D/l4It/1OjdqO6Uv8rgV9+rfUE1sMEZoheVZNVvrWnJz0mrDYI77kwwxNjaUuYSKaKJKxan6DcR3nZ47lIIhke+wWFkdJmayTLzEgtdEmJSqW0tjQ8vb5e8Ouup411MUHAz5Tpt1Vj3vKNCMgT/2l7nRYTFT7JJGQFSzk/XR2kVFuPbddeOx4+Dfj119POPBNkWa4B2JmSaVlJsoo8lNd77ffz6JeT1JMCWcHqn1rZ7c/b6y2HVEGtdjyPpA3VM46jDaWOny6+Fknw6j4tEzYGZCTrAH8Ft1DcyMV5CgVa6bLz9cs8Jai22/tdiPNqazl89kAmyAyeEltqYim2wdx82/MXlfn/EUiCdUrCWsBniI8C7dcC7ddfRlgsXWvD5Zkgz9YKT1JnTmJ8WHz/ZYP1EMqH+boMS/l3Ma4XltRdhsBzZb7MxG+HdsKtBedhE9TR17AafM2E5wA2nglLpY3QrvuZzgVb61FJi+tIe610BZR/C/JW9OY2GwWA/wfVASOqa5sJDgAAAABJRU5ErkJggg==;" vertex="1" parent="1">
          <mxGeometry x="529.5" y="365" width="50.52" height="50" as="geometry" />
        </mxCell>
        <mxCell id="9ciRj2-nHP8VVuhVhLj_-11" value="" style="shape=image;verticalLabelPosition=bottom;labelBackgroundColor=default;verticalAlign=top;aspect=fixed;imageAspect=0;image=data:image/png,iVBORw0KGgoAAAANSUhEUgAAAEUAAABICAYAAACgEzj3AAAAAXNSR0IArs4c6QAAAARnQU1BAACxjwv8YQUAAAAJcEhZcwAADsMAAA7DAcdvqGQAABLjSURBVHhe7VpZbxzZdT5VvXHf950UKVrSSIlljz0GMsiD4SDAODH84gR+8G/Ic57yJwz/Aj85SAIEebFnkAB2Ylu2ZG3cxLW5b81mk90ke8/3nVvVXU02xW5O29B4dKjTVXXrLud+92z3lqzT1c/ylpDy+mvuryfLVHvnyJmEkldEt9wt89bjXCy8IZs71rPEtiWHW7Ih8+Iqf1HosqwuBoUrKrjsEm/zzi+hsYvvPLX+TInAXOarBFCcu/fkofeglCEHlOuV6ctINdcUevfPy2+jcvXJtaSaglJOOHp1949PV/kqXTfJWk/+OqoZKF6BS6aMcr7LIwYql/yxTmXA3ARIYbxLVL73y1Taee3NpyAeWEEwpYVfjl9gt7z45yUDpmGXWKOUTfp1qeMKmeS9Gq4xKM6k0LdORkvw5zyTvBNS8mZRIANMaZlL5UtdMhNyQSqApQOXY5L3WuSaa4qZpGGdoDsuyLvipMIk2cZlEH/L8VVyOzTX8nVAlzvSiqVtvVRbR+u5uuOaewcg/mLiLhOEQl2XHGCqpapbaYOrgJD+CD7FocJ4KOG9A5CXjFymlL8uXyOr6eMyo9j0UDuqLSgQkuSaiTtBIzR+VTPcaRRKK6aydTmWM16tqPY+pSwZKL4oVD0o7qpQAzx8zTo6L324OowhzT6UzHfa2ENO5LDIqOvhq3U95Hb1Nq6QrPjqLzCbm1uUr1EEgncKEO+0Mn4wEcvygT0T0iZaG/9ykgfzaspYB2wDPMvvAcIEWFvrZlEd7VBaHXnHd0iLHFk8VDEoJLeWdnEpSpiu3a4wBdymMzlJJXOSybKME3Re4yUUQQIBW0JBW3xUIEewLJBNZUTO0TaTIxRmKFuy4stnJORHm0BAfH42Mm1c8j6VnxFK3UqFCiwo7acqUAqkDpNU7EzvdEwLCmLLRTItMzML8utfP5NweFt8dkDrkfJY7fr6kDz84J5866PHMjzUK7kskEDrk/iZvJ5blt88fSnb+xEF1gKCFtoErKw8fvRAvvn1xzI+OowyaIwuTnmfVTor98lb6rYqbV0ZKB6t8N4ZX1JKqug+v0RPEvJv//Ff8tmnv5L18B5ACZoK6CsH9W9sCMnjrz6U733ybfmLh9MSDFgS8PvlAmryu2cz8u//+Qt5/npBEhdpsdAfe/ZbObl/d0K+/8l35G+//TG0xwBpzNYhyuSZY6mI5ebpqeyQ0em3kaMVLrt35QAh0UFmUeU4fi4v5xZlfedQ4jChk4us4fOsnOIaTaRlfftAwpu7EjmKSRaNsgArFApJZ0en9HT1is8KSjKZl8R5DuBYaG/L7NKWLCxvSDxxoUfL0CEdt0QcPjgFRmaX3Fl4+SrdDEqBTCf6iwG93XqZqn52kZKNrT1ZXt2U49NzBJ+g5G04TmWYETibtyVyfCqb2/sSPY6joV8ycD7ZbE7a2lplampSent7AFIdzM2H+fvBATk6OVcgN9F/muiraWFgDxUeS5CqnKoABYM5K2AGpUBX2YLXPDg4kidPnkv8NAmZ6UsuSYeoQs04ihzL2tqm7Owc4Jm+yM9X0tHZKnfvjktPd7vUhQLOwju/qLCF+s9fz0kywzHVS+MN7m/kyqgqUIqEARQc988d1hI/tOIoEpOnv38hZ2dpsaEBWvkyoUE6nZUtrPibpTXZ3j1AtDH9BoN+6epuldGxAWlpbkAfJrNhLzaA29zeld/94ZWcp2g/Tv+MaAUpihLdhqoGxR3m6nAU2SfHMAVGm/X1bUlDaOYpRmhcGKdVeJJZdfqTFZjZxtauRhqqSh4Otb4+IHenJqS/r1vqEIIttkNzbuyP4cSXoWFhAHoOU9XoZEbROl4yY1VHt9SUcoREDXa/ML8iL/4wI2k417xjb/y1bQv5iK1XBUdRsiVxlpL9w2PZ3T/SyIPURHIIv37kMFNTYzI+NiytLY0ozBpg8GdDG+Nw1k8Qtg9ggjaSPR1JQXOuynwiaam5rYBuCYp3MOcKx4mgKkuLYZmdXcTE+A7dQzgbeQvzko6OVgnVwdkiESMRFtY7ip7Km8VV2dk7kETiDA43owldT3cHcpg+6WhrRiSC1rEFJwuTSZwl5enzV7IH/0XwXf0jFe9uRzXRFAqBaAoHG5NlhMttRBRXSzgLn89CRGmWh4+mZXS0T+rq4QcwSb6nt2C02kOitrO7j/Cb5Ly1nd9vydBgr4yO9ElTYx2AMT3SJC+SGVldXZct+Jc4AGI/OqTTmhqlj85vNVQ1KMUhVDyw2d9k4A8W5peRqO2og1XXiNd5qHwAKXl3VxuStQ/k/oMp6epqwTvjoLnPScJsDiJR2djYkUT8Am6F+yX2nVNNmbwzIu1tjdA4agp0Au9ycMqx07gsLK3Ixs6e9kNtKbp+kEGpaqoOFB3LgGHBXExzCuNXIJ4+Q2q+sw/NQBiGQPQB3OzV1wVkYKBHpqfHkNrfxer3syN1LXS2qTRAOYiqwz2Af8kg1NqwH2pYf18X/MogQG2RAFWFGRsbQoYcZHg5My/zb5YljfHoj26JQwndDAoF1xuO6D4bQOhYLWSd6bQF9Y/KM4TJXfgFW9Nyh+A0GVan7ozKIICZmhyTQYICe+Nq6/zQVzKVRdTakUX4pH30paBiSG4Y+3ra5c74sDQ2Bo22ABi+owGuhDdkfmVNIrFTYdpijhwcUY3gVVNlmkIgyHrvjIgnZppMzk6QtS68WZFI9BhhFVECq682jXotjfUyMTooD+5N4b5OOttaZHR4EMAMwGdAy1RdbA3H20jK1td3JRplhutEFEydpndv+g7Sf2gL/IyBA4Sm9CdhmN0i/Esa2TDRongq4i2pAlDKwU1gjLbAjcohwuLL17MmZ4CWUCACwvOPro421ZI7ACaECRGY8dEhmZ4cl1CAoCASoTvmbYlEUnZ3I7K3F4E5XihgfN/a2iQTE6PS29MJzYEWosxMnQuDDBeOfWZ2waT99C0GzVtTZZpSMoIRxjDUPplGtNmT2bl5RBGk9Qi/fGdAyUsfwur4SL+0tzQIUg9pqq+Tob4emRgbksZ6mAMr4p8xST/MLyIrK+u6VeBWgMRUn+F5ZGRAmpvq0LfJWdjOhqbSH80vLGOTeIY9Fdt8DkRAFYJCcgcqXjmRw8MjWV5Z1dQ7hfyCNm3eMhaY6DE6Mgjh4QegOeRG5CwD/d0yNNQLP1GHyTnhGUvMCLSEtD+K3CWr6QzLmeEG5eGDr0BbOrCVcPvHH0wvifBMXza3sKTnMYxe3rylWqoCFJIXGAgErdjc3MLeZRmCpTQlIyg8LPT5bY0yHzy4J2PQCjpIi1qBd3WYYP9At4yND0kTnHDOAYWcRiQ6RAQKr23JARxuChOmGTGCPbg/BWeNtD/ErYPjV9AmA42KYL/18tWcHMcSkKvMJrQKqhIUkhmMWnoBc9kAKATGeH0TFg0oPhkaHpK+/j4JBkLwN0k5P0/DV6S0LY8HBgb7oCkNqG0yCzI3fLFYHNoSxjVhTAj//AC5Cw7XhOd2lDHDJRmdScAHLS2HAc4JnDZ7+pOB4oiOyfNAaG9/H6BsYlMXVUepnh+y8JYRJVjfgLwjBrVeRRoPjXpD3pC18B5S+wQqMqSbrb/pFxf0EUN4XUPOEo8n9UhB+1VtSmOTOAanO+L4Ih0JzRi98poW8ByHoHJq5m315Pvnf/rRvxhpbiJnCMoIm+Xm7dnzl/LL//2NLK2uAQzaMSdo7Jmm5cOqHx5EZAGgzMwsglfk9cyy4bklWVxaR7Q51PPcwk4XP+l0GmBkELna1e8w+uTzGbyE6dXVa3SaRfsc1ZLERgCIZtbc2Ai/04XcplP9l5ec2jdSFaAQFrOanHwMucnPP/0fef5yRvMUnqYREK4Qp2fM60IicMQ7iE5bW/uGET43+YzM9/AwKmfnCL1o5d3+8xOGjefmpgbpQ0bb0d6kJ/80zPqGBjlGHsPjidhJAv7EcdL45aldJpOWYfiye9NTkMFsPE3Ppu9KqHLzQY+wCOQh8PZYyT1oQHhjW05OAAjCIvOFou2YicWxNzmCaR1iXxNBLhM5Aut9VKK4P8X7DPpSBJnhYmVzuKcm0nmurW+aDR9CLbslUAGk/yNI/h49vId7LFMu40zWBiAC4A+wUcR24eBYcllOz41ELrvkCFqGKgaFXVg2MIdQFJJhk1t+fqPJwzeYL4AExUyQCZaJEBQJZQzJYEahAutxAMN0Vlc1hxicBXMsZrgM81vY7MVOE2oq9D95vO/v7ZKvPnqA0B5wPpChe10Unzrz1dUtmBf2QwCFGbfJgUoBMRBxpKtUMSgkqirnHIUjfPFqFrZ9pKtjOyGQA/F/cPPDlX68sgzbdg5XmgSZZeaq97Zh3sMAMPmsbhWojcyQV9bWJcxTPJ7KcRQM0gYfMz4+iPynXxqQ8+gXQ8jFvRRzG00AkfbTSats6swJgRcYl64CU7lP0RlbcpHOYle6Jp9+9n+yC29PUFRSSJXPpaUD+5PhoX4kZz2altPh9SIb5T25B07QXM0z9zU8K6FW0WTMgZFDcKy5bBp7njaZGB/VzNYP8+UJHk/+j45P1E/FTpCwwUxoemiB+5w0wR9NTU1II66+wmnf5ZmyzFti7iv+QqiWgb3LBjZtn/33b+Vn//pzhEBvTpDBSiXl47/6SL7x4dekPoQUXt9gfSCQdwS2MO4H5Zj4cSymh9evEJ2ixwlJpXMa8hH4kePk5K8//lB++A9/L3cn+qW5IajDnSZSWJwN+fFPfipPny2IL8gkkH1mpC5owdGOyT/+4Pvyza89kvbWRpgdz3INYK5ZGya50plrxZrCxCyNUWexx3jy5IXmGmewX7V1dE4TaW4KyHe/+x35u0/+xmwCsYm7Mz7iXPk8JnfuMM8g4xl1pqfHNeNtbGqCOR5i1eMwHWSxGJOON5VOSUNDHfwItgUD3ZrZ8gsjz1va2jvlxYs5WcfWABJg0vQrNKG0+qxmZMsTY6Mwt2ZosdlEuln1VSIGBofKfAoA4SrE+CEqvCOr4S1EDmabtGV+BuWK+pCGT8rkxIC0twWRqdrS2ED2gwMO++ED3HvUwX0Iq9rZ0SRfwcpOTo7qGW4qdYExMU3suHlIfYgs9c3iGsrpkCGP+dFz3PsP7srE5AieEYV0woYSZ2eythZGuhA3GkQ5wby6ZE73rlJFoFAXGFAY5pgxclfK0zJGI9o3hQkij3j0wTRWswuONG3YzhScKDVJHS6vUGM6W97zytMA7n77++lr2qE18DGQVycAJxmJIiueX9SPZskLhHCVCGqO8e/dBygTw5AvhRII6QDDPdT+wQEy6Deyt7uLctOmEqpYU+jV19Y2NAeIIo3WWMBRIARw0Undx4atu6sVAibxih7YMH0DI4uxZc8V5uFz2oeC2CthRz083CctrQ3wKWmE1IxksBqMQjStxcVVicHnaJIImWyfpR/MxiYGpamlDs8s5kIhdAPQ2HFM5ufnZGd3RxfPyAt2qKgzpXQjKOyDA5yfn8vKSli2kTdksAqBgF+38NQCHhPyrGN0dBDg1GPOSNsxceNgOTRBKF71nXNlYGA9mt8o+hgBKK0tjBj0U+gf7Me7DMLc/PwbTQLppfnHd21tjbpJHJ8Ygkws41cAG/1S5oRsb20ic95XP+NqER28uSkPy82gAPlkMolt/J4k4ifSjG3/QC9CbVczuEV6O5tkCiv10Yd/Ka0If2ayoAIg5koAeO+yKWPIZWoOM0OjHoTnwf4uGYYJDsOUhvraZaCnVfq7W7GnCcEMtuHLTgtzYfs8tGl4sFe+8fihtDbDT9VZ0lTvg7+C/4J/oqaexKLIrCO6uJhOgYqYeApBN4ZkgkL7ZFa5jc3bSfy8kEiROBATKH4M7+1tkxDPOpyNmNnPoG89ujRjEIriaJQKdbGCCpvlx646ii1EFDvkCzhGTFul424LvgfIjUMb2ztasZxoBzVj1Dk7x6LB3zFn4acWbgc0e8bbBixiV1eHdHd2YDMZNKAoGgVEHCpKVVmeghr03IwGutX3wk3SPQuzUfgQvHKjgKnl1uX1UjsVzDBBoeJqxOH/PtCNVrG++7mEZpBFtHNNwfTJhM6vXBzDvOeRA7cPDOO6AArI2+l2/73rLcSkzAjkHdzt//I45erdLIv6BLea3l7fxoBtiHpVCd3oU6olLqARshxfpuvKa0kuEJUBQqo5KEo6/tvAuEzV1L0NVQ4ICa7qbcr3p6DqR1eJOU9wLaRnD6rhDv9xNKVqUrHMbYVkFvPmNm7P19VUf0320DsCyrtF70EpQwVQvGp2G/5zIue//3x+Ltq483zJTt81UilVxqLMLmv0McdgNWDttEjvGjCUx+Vi2uCSkZ9/aj7udD4PF8l9MtfSd+8qlUpZW0fLVXBuC6Qr8sWi99GnDH3pQaFme5maDVCuKPyXhgozdx2vY/7vzccBwmWSoynu43vi+YvNH2rOeyIBC8uW/we1v1hJDNMnCAAAAABJRU5ErkJggg==;" vertex="1" parent="1">
          <mxGeometry x="630" y="455" width="47.92" height="50" as="geometry" />
        </mxCell>
        <mxCell id="9ciRj2-nHP8VVuhVhLj_-12" value="" style="shape=image;verticalLabelPosition=bottom;labelBackgroundColor=default;verticalAlign=top;aspect=fixed;imageAspect=0;image=data:image/png,iVBORw0KGgoAAAANSUhEUgAAAEcAAABKCAYAAADpLknBAAAAAXNSR0IArs4c6QAAAARnQU1BAACxjwv8YQUAAAAJcEhZcwAADsMAAA7DAcdvqGQAABYPSURBVHhe7Vxpk1vHdT14D/tgBph9ozjcRqQ20o4iJ5aXWJWk5FRSpZQrlcofSCq/KanKx1TyIbFsyZFklWU7dmSbokjLEiWKHK5DznD2DYN9ybm3u4EHEBgC5FBKUjlgT/fr5fbt827f7n7vSaE6gf/l6DSAkI0fB0+MnC+a8fb+guQ8KlF9k3NQ5cO4W08K/QzSjaNvcmpduhExlWoVtVoN1XqNMeuZf18aQhyl7/nwfQ9hxp7n2ZJWdLupfZEjFYUc1yCkP0C63M3ncP3GdSwtL2N55T42NjeRz+W0rtZ/gmYV6jCCKm9UPB7DsbljOH7sGE4eP4mpkVHqb/RpjqEZ2tEXOSK4QrEeRRXrVayureDu4l3cu3cP90nI2toaNre3sL2zg2w2i2KpxNpGfM+dPAIcOcEBigVHIhGMjY1hnOHIzBHMHT2K2ZlZzM7OYjgzjFg4onXl5rbblBLWLzlVhpWdTSzcvIGrC5/j8yuf4+rVq9jY2IBH81WxqmWolZj+Zm9f6HTXFexShlfnNI9GokrU6fmn8cyZMzh39hxOzB1HxAsjzKpW8xb0TE6N1YrVCvbLJbz13rt46913sEJrqVRoSyxTH6OwlIhSem1yeuulPzwwGBs3EOhTyjw6obDvYzA1iFdeeQXfffW7ODI+jQQtyLd1guiZnFw+j8tXr+D77/wHPr76Gbb3dlEul41AdipxQ1CAGEGPXRwqVC926wZsph7/8J845vHxcXztpZfwvb94DUcnZ5DwxX5a0RM54lg//vQy3njnLfzqo4vYzmfhRyPsuJ1rh1ZLUaoe2svhokGKBNu3I0z0Ed0nJybw7Ze/gdde/XMcp09qH027H3oAeVrMJ5cv472fvIcPPvgAxWKRji6qZcY+OgUHc92Nwn6hA+0xBOE0Um20QkhX3ZW1Vfzs5z/Hx598rItIOw4kR1abK1eu4O2338Yv/+uXmheSzYOYhRl310CTNHfMXTN6nOAcpsiU4LUFl9/eTvu3UTAoQdRxd28P58//BgvXFyS3BS3kSCNhVFalEvcJy6sreP1Hb+DDj36LimzstJZBo3OLhnIuSGZ73mOEhizpS2S3weW7uo1wENigwkXm2vXruL14B0UuNkEv0yBHpoj83CZpY3cb71/8AJ/euIbN3B7KrFlmafsOuaFQBzQU1qvuCNY7KDh0KpPg0H7dtRL/yHjWtzexeH8Ja5sb3N23k8MMyZNsIafMcHf1Pn7xm19hK5dFNeKhyBIlx3YQvKNfJILj6wls4NRUVUWAzZNYxluslDlLVrG4vKRHHwdDju3RCAhhh5Zy694dXLt5HfvFPOoeGWZNR8xjwSrXCH1CB/UYaJAUiBHysLG1iXtLS4H9WpvPEYi+S2Tw2rVrusE7DDSVaCrnQjDvMNGXPOpQKBawv7/f2ec4SMZ1OqhLly7p4U1Xp0dEL4PWctuFq98tHIRg+cPqdkKdFiPjDaJBjtGvjlKtgmVazuLiojbovtHrAyKCoZvSOnhbpxc8yuAfhuaerYmm5YjyJGOTnjvHHbE8BzkMXhx6GZDWOcQ++0EkHEY0GmvpPjCtzKZoa3MLWc69Q1NSSLfJnvEFEyR+Znp6BvPz8/B4MHVo8TlSaZcHSjkyHMp0egQ0jPuwuqewh4kSX5MZzpCgaR5K5VGLgSGnIYA+p1gyqxQzzN7HVf0ScJgENcYYgORxwckMpTE5NoFMOtOyABlyGhmMbdIsaQwSPQK0GWU9YnODPho3h2TSHQPltYY6wp6HZ8+cwfyJk0hFxOdITYOWaSXZHjdEopU454ZyakKyi7Yh8DNnsQeDNHXNe0HLICTjMaFyqEB7kNFpkGuOMeqF8a0/fBnPPX1G20iZ67+FHMlOJBL6SFHICCpKWU3Yi5a8w4AIDIY+4fRVndk+eO2CO8VXS2VkUkN49Y//BOeeewGZwaFGHYcWckJ0Rul0GkkSpNNKgy0zkULTzA/mPQ6cvENDQLeGxUiQY1OV58NiGTPjk/jON76JP/vTVzEzOdVuJYpGnugmU2okM4whsujLOx7JdAQxPEmCngSUGBdzHD5960AsgTGO8ZVvfRt/81d/jfnjJxHjTLFDbIGS4zLFUw8PZTA5PoFhem55IN1CgHbSvNY4WP4/AW4wAegg6V8G4gmcfe55/P3f/h2+99pfYprWE+Fmt5v++gzZyROrE0HvX7yA19/8AS5c/FAfeglpur230Pq8DurRSLfl9wIV3UOj4CCC6QasDCOPiwKnkJAyMzWlr2SePfMMTp+ax4ljJ7h8Gx8TxAPX7eQI7q4s473//Bn+7fv/jt3sXiNf4EjSNky3j6lb/kFQkT00CCofTCvYXtdPklGv1ZCMxzExNo65p47qMv38s8/h6ZPzGKXLsNUVD8gJ4AFyJJ3j8f3i7y7hn//1X3Dj1k0e54vGerQW61iJes20yxd0ynsYVFwPDYIDCaZlBKKfz61/PBZDNBzBLI8DL734+3jlj76DydFxfbspb2plZkjbYPtu6EiO4PbyPbz5zo/wk5/+FOvr69pxUH8hSK9dTLRf9wpV9MBGZijmr9liBCEDiETCmKCvPHfurE6fk3MnMDU+hVQiiQh1F1IMMfI626FdUitayJHYTaF8uYzrN6/jH/7pH3H5s0/13bOzHg2U62KByrB5/aKhYkMTk9PID6ZYRV7v1sSfELIvm5ubw1fOnsMLdLYTPAaMjo4gzT1MlKuvSHTWIlcSN6URMoCWjCY6kuMEFnjG+gEd84/f/TFu3LiBkE/x1jnLI1Op18mCBMG0oEv/CiphE4HICQiwL493hZj0IM9Ck5OYnJjEcCaD+VMn8ZUXzuLEzBFtFuxbWjty5NYaaSLMylUwHby0eICcoHBRZGd3B2+8+aa+u9piulStoEpB8kxZSZKKjF0bB712HdrC9v7NNR0oNZC0WKYkQsq4ca7SNuyHEQlHEYvGMZAcwCk62Bd/70WcfYE7Wx4aB5NxnTpGXrOfYGzSRp79Q7gaAqaDl0RHclpAgtbW1vHr87/G6z/8Ie6t3kehWiY5IWM9ElxVBpHfkOE6axPa1MHeSdWAvoDkCEEydYwJs7zOjenwMGamj+AMzz8vf/2bmJ4YQyqZUOfrc+rI5k7bCGzc7INouSBaKrtCGwfqHkiO1JMgNdY3NvDhR5f0ffmVhavIckULhTnNZCetlaRFG5jvsgN92kw3/3mhJMi1xNzhczoPJgdx/Nhx+pEXcOr4KV2WZWM6MzWDeMQ+kDJup9lJlVkFxjY/JA8z40zIvHJwinQkSMC0vXyAHBc3ZNhYsJfP4Re/eh8XuMwv3L6J+2ur2JF9EJ21fLmg0yIAJ68TGq6dU6fGqRph+3RqkCSM6VQ5Mj2LZ04/q052ZnJGyxVqUQyWiGKhhEK+aBw053u1QQ6tyeeRgeT4UQ+RGKcmQzgaRkhe9as4CmpVmXDM8F8ncoIItnV6yTJ/6ZOPcPGj3+o+aGt7C/lCQT9JCcpo8XntYK8yjWLRCJKxuJ53jj31FJ55+jSe5i726OxR/frKly9nZAwiWEKZ/0oVVHJ1lPZq2N3OYmdrB2UeJj3+1F+J1k4RkhCNs4/BOJKpOOIp+q5MBOEkfZR8daI6SgcSC5pK90WOQ5lHCvnIIEtLurO0iPMXPsCFDz/EnbuLjdepxhe1S2xKk17jsSid6wm8/LU/wFefP6snZTkEyiOTiM9Nmzxbcm9LKKpOYqp7wNKtFSXFoz+qV1kgr9d45+RBlfgo04+xTYE8bVBL4dHcIyHDk2mkZ5OIjfCiUb1R28aSFSDHQa6bVQz0OljRVsgXiljbWMPS/ftYZawfNdWqKNGK9CVZoJFMvRSnjnzdKZ+xZNJpTHFfMsuzz3hmpPGNnjaRIKZKcnJbRexuZlHIFrm/8JDfpZXSesRSPN4F2fkKKU2rkdhsOxSUpSJDNQ0RWk0s42NwOo7hWR4n3HdLtrpDR3K6Qcl1c8tBBFr/WKIj3c1lSU5Nycnl9k2BgG3km8GBgQElSawjxXRMh2bKXSjvV1AqcMtQrqHMOLtRQHY7j3KOU4d7CL8uO14hw3QvpGhQOfLXmIO6fP4zrl/AW0VyqvLZZ6SKxEgUY3NppEYS8BKsI80EOlCR+VBybKkoIiZc4DJerKBGxWUfFOJAfa4eITo73noSZZd4beSU6gwp1RoyJRhkk1faL2F3bR/720USU0WO1lIrCf8+bzDl05KECLEY1UllmFVOUs565NJYjp1eWl1zmS+BgsJ1xNJhTB7PIDkeNyubNtEW7eQ0U1Y8FafGNU5qrih1ElO/cw+FlXXs7+yhxANpLBFHKjOE2NQEQrNTPOTQjOSrUvnGTl8MyqZdgvRq+g5C9bA+o7Rfxu3P7nHakA1aSKgWpvVwxSEpEpQQIdKq1hyHla55QYsxJcqXQiubhkRNHg1Gq0jPJDm9UkgMcxmTmS2PDQmSI6/ymhB2jXjm0negTs3XV1G5fR27t27B395FPZfn3Szp8umFeU/l+8CBBGpDQ0hyKY7OzAKT08BQhiTJU7Ywg7FZ0UuC61NuIHL8t1rE6t1NZLdyvBfSv+x42UashD/1KfJjQ2MdRo7GwQHYXM1iUuImOQauuk4xj74rWVPrGeUUgyzz1k1YcoLSRTEyWqfWlRLKy3dRW7iCyrXPULq3iDAtSIYq/UnQzvmTMVa5woRHRlEnMf6JeSTmz5CgUZpvgjWklWnjBqPX7Gr/dgGbN/awu77PvZIhwcCmGmQIOQzW0ZoyTWraaGXgCBHdTDpQxjYmn3ssjx4oVMIoHfPkyRFEh3lDrINuI8dajBBTonVsrGD/4nklJry1hiTJ8qVMbc21saDCVU6jkhfBHkkKzTyFzFdfQuTEaRI0hroQxIFbizXNSUwlX8XS79axu5ijRZsPMbvB+RPz64wGQYzcuBxRBhyhHbHxPRJqiA1FMHxkAKMnB7hJZAP+c/6ZsMRIoGesbayidP591D+/jOjWOhKVcndiBMz36Z+itTIGefbyVpaxyfNY5fpVbq23ObCKU9s0JzHVQg3bd7LczLG+7Gl6hgwu8JPB6oADv2CeS9vgZIg+xrmHUdjjQrCRpV/VIkWrRrJciJ/J0q8s3UXx5gKi2xtIlAsIi1OWU7Jr2Qns2Gf7GMlJFnOIbq4jd+VTlGmB4nVDSq7UY+CGrrZbx97qni7R3W2hC5ycgDomqXToz162SW5tpFYoG0cusdVSHUVasqgpYK7yZ66UnDIK925jlxaD3S1EOZU8WbEajB8E1mE9j3JiJClRzqNCn1VdWaJj4daW/srJqRXrKGzSp2WpDIlyTvaR8ZDm7cV6bXky01R22yF6E25TZMtCNC1HrsVqCtxjLN7C3o0FRLipa64EjsAeBqEEVdmeFpHPorZ6H3WueFyXTT9EiduCPa5MoQr3Sboy9SD3USF9MshYNJjcQI9SgcsQZ0aJZzR9a8Gs1mkl5GxtIpLdQYIDCfOaHtsWCnodANtYgqKUUebpvbDCqSWflVl5lXIV+X1OcN4tXbJ7ln04aCdIYtnUVrizd5ubJjlSKtNnbwc+z0RhVvS0UpCcfkCHx/Y+5RQ2N7G/tt5CTpV3R++SXn4RxLixdAoC6ssV1+e+zT2RbLUc0bTElUNXJrd6dUKvgzEE1Xg4rRbyhnxLjjhMeQ6kXXTrpgu0uqgQCAeLYGmwfgdIe/lwKRqLaCxo9TkNiAe3ya4I9tYpNNHIEWKsYIl8G1rvUHcE3Z1ICYZOkJvbvMHtLVy+QNI8J3JnHIuTHP2P6h7Qyw3DiNV0QCGFPcwdHASMrXnKoPQQyH/KCmM5bYVJlk8nKNYlRUG1OwWBi7vBLOFBUky3nWDqNIPPQ3NUHoLZ40OTnIYEaeJx2ZfnITarbzQb8n5we+7R7zJPHnXaonAkjCTPY+bpZ2BfcgC0Btu3Dqk1NNG9pBXsmQe8cMxHLBVFKCZ6mpJWy5FdajyJajSmA6JLlkxT1jeknTy+8BAeSCGSGuIcklM682k90XgUqeFB1HkKrsoB67Cg6nYjo50sIYaHz1AZ8VQEg8M8OtB63JCb5Eh9ecSQzqA2mEYlEuWhTIz/UWGIqdBG42PjSE1Mkhye6HRaMpmQ/CRqcTmT0Tnb6fZkECTEwVhrnQdPRGqIpyMYGI6pfTjYpGjFIORkRuCNTSAkBHk8SWttW96z9pyaQgzbl3kIjfGUnpiepXwhx8qL8+8wQ8pX65E7KMr23EWfMNo7X2SC9Cmfe8UHI4iPhuEPMrudHG2oPoHKR+JIzs5h8PgplMO0Hq3iCBL0oD1lVUlC2ecpe2AIIZKNDJmw00p9GUV6cQ+p8UH4yTBPXryDorAo3kMXvaIhSvnglRVPW6UCNfi03LEjGQyOJqkfCwJ9B3gi5K6SIH9sErFjJ+EPj6MUTRgLsk/1DgYlq8X4KHgR5Ng2fvQYIkJOlESxzKxLRk8vGkJqMoH0VIp3L6pzv8WCAor2h04NRaYJ8hS5TmIinNqj08MYHE/yBnFsbX0GRstcdZYkITkAb2oWsdPPojw+jRyddEkIUnLaJATB9kJMnnXzSdrozFEkKCM8MiaFWi7QmygJdhVP+xiZHURmOoVwin7K5/Y9JP/fAyEpiC59tkPGb5MGVgozlRZ59BjhgpAOY2gmhVFajT9ARdzQAuAWw25ZG+ClnM4rRdT3tpG9dAElntD99WUk5dGFPKtpPNdpQvYx8rCrGIkhy6npPXUcoy9+Hd6RY5xaKRJBx0LijeWYma8pSfCwXtwpYWdpD+t3t1HjZtqrhRGSrxWoteqs3bnjKf+2dt+GgG/RDsS/MNBa6mF5sBXDyFNppElOKExZ8uSvN3IIyRICSER1ewP1m9dQXbiC0tIiqjyUeszXT5lsS5ki8iiryhUuPj4Jf45T8sQ8IjNztEJakP4H7axkLa/ZoZ1kcorggb2yX0N+3bx9kGfJpTxP9XVzYm/Q0tPmiz0IGQE/FuGxIDGY4IqUQGIsilg6Sn9DfQz/ql47OpMjwpUg0Zod7GyhvrqM4sYqatubqO1so57NolYpcbwe/FiCq9sQaiMj7HQYkYkpYGRc90z6zlWnq8iVP0EtbNcSyaB5Qq8XgfxuEflsAeV8hYRxiMWqnuL1fbg2Ccp4EOK36PL0HblYS3yAZCRjPBrEmI5x+pINuV8Cp1IHkV0sx/1haJDEIM9j5MOBjXWUtzZRKRW4+oe55U7RiZOMcQZ13OxJfJcG22uj86Amrmte2+4ULmZ3xZ2qPimUE3y1LO9wbFtXpx0srvEXplWEE2SAe6iBTJLX1CXYxqng4g44gJx2MFNO0fYdljx+qItVUXpIpo0LSoz0GOhVkyKUCZUtdSQOoL1PuZYg7o3dmpskBQ+HGKHOYPKhXTUstz/0QY5AFLTBpQXauZ24TokWZWw9ydSkLXR1XHE7XH57/DCIXBceA32SI7CFLc2ohSoS1IbletlWTy+D9R6CYPN+0Uc3nfAgOY+jTAso6DDI+bJAFWUuNHFoxPwfALnwtre37dX/QyFGzbBwbQH/Db2/U3+DowulAAAAAElFTkSuQmCC;" vertex="1" parent="1">
          <mxGeometry x="602.05" y="290" width="47.97" height="50" as="geometry" />
        </mxCell>
        <mxCell id="9ciRj2-nHP8VVuhVhLj_-13" value="" style="shape=image;verticalLabelPosition=bottom;labelBackgroundColor=default;verticalAlign=top;aspect=fixed;imageAspect=0;image=data:image/png,iVBORw0KGgoAAAANSUhEUgAAAL0AAAB3CAYAAABWpEHiAAAAAXNSR0IArs4c6QAAAARnQU1BAACxjwv8YQUAAAAJcEhZcwAADsMAAA7DAcdvqGQAAE4uSURBVHhe7b1pkyXLkZ7nZ6+lt7sBdwVwsRAc0IYmmb7ov81gbP6JvotGM5lJXIwjG2oxSiOJHEI2FAngXuBuvVWv1V3b2Y/e5/WIc7Kqq3qpqu6u22iv8pOZsYfHGx4ekZGZreFwuIgXoFarVc7e0lt6+bRYvBA8n4va5XgiAfImv6W39CrpZeDvCdC/jEze0ls6LzoPfBr0Z03kLb2l10WnwW77LdDf0ptCz9sBnmnTv6W39H2kp3WAt6B/S288He0Ab0H/lv6kCOC/Bf1b+pOj1mg0Ov/V/zeYjrMRXya9jJszf+r0Jwv6Vw3eV01vO8vJ9MaC/k0H9VnpT7lTfK9B/xbYL4fe9A7xvQD9W3BfDHpTOsOFA/1bgH+/6PvYEV4r6N8C/M2ki94RXuk6PSBv8lt6M+mit/MTmj4vnt5TsxrPrswbBewqElWJ06aEqGXrGJk1w6n5S5j8re7WOvWiksW2WDoT87gwK//vF73ukaA1Ggr0SwFWQXOsBeOYYj35txzfJJA3CREUcSxUxRlsJ4suuuIOARxuEbPZNBZt+XQ6MZfTnHBy77XaltVMiczQgvLriVskZsqMFi0dFb9kqbgKS8YQjjqdi6sTHaecXiyqFWjSMQWtneC44M9DT637MYkeMm/wpyFppPzjDKZV0pXjKiU1ZhnC3ljAV0rhmDkgkZRKSgawrzjlNhNP/ZshAX7MxfLFZcp5FafPxQaAYjsNzhtUwxbnxun3h44p8FEM1Xo9i59JJwRqoy2O+qFjVpw9acUtKaE2G/F9xO1PghoV5RRt0SmcmkOubo1FdHpdKXl0/0w8tTYfyL81nUqrz6Ij8HYF8FYFvam0AiOEZFu1H3kts25c1NOl3/eJjgKuSRX8yECXJzF09HiIjnVMau3Lpl8JLpM8nB3t0BCxQ9fzcgrV45tKKQoTpgVkKVhM+rG/fubS4V3MF+n3hUAuv55CLkYyeXaGitCJVl9doKeu0OvXHpMJOV2kj4mkzqGO05JiMTn9E+iiyv4Fy0zwGuW4qM25QI1+9Likp+Td2muAHnEv2UBXzGVkXTcB36RjnN40QgyA0VWtw2OTqwwE3oWM9LkAjxrvqKEWuwdx8M31OLixFW1p942r78bg408iPvyBO4jVfbeteYDmAISfKZ7O63AP1Syhks0Rhzy9UFTLdxwdU95mlSDOjwarbs2RsHlcUjOhI9TaKaBHn5gzRf00jiS5BPwRqs7HeL0phBQwVPjDoMM88Wy22tjUHeHJ1lnoOJ9P5DRPJb63H9Ovv417v/0ipnfuRWcq82fjUqx98mlc+fM/i3jvasbrdWLW7krkGt7VMbptxa7NoPThagm5nWz/64S8bQ7gc8GolP9YOlLeZtCnRWsSSRwF/5KekojbpU4irFkquIlkaSP84naUjnF6Ewmw59RUZ5pgWjYgsDLXRRazOQ6SJaKVSTO79zD2v/o24u79uDSZxhWZLb3tRzH59nrMv/lOnWJX8RkZ5mIdvXIjrW/5F14dClUPytII9H2hZ0CJ8+dhCMxifjdHRdORyyb5wfCjCaVMm65Ln+WlNRrHwm8+pabnj/MlFXlYJrBONc3XpFVdZPuxwT28eTvWDw7iSqcVmzJjLgmsg72dmHwn0N+9GzHJkSHXg5SC0vFZTbscVkwYha98UelwoVf8kqgq7mUHOJpvYQbR5fWqLRshKnFalP5MR0b3aWGiLaO+0QTYSm2RB4wAkYsYJdCRRB1Edvzs5lZMrt+K/u5erEvDt8aayE4OotdexJrSGN3ZivHX38Ti0eNoaxToKp50vDT+YdD7YL9kg76WpfIbQKW6L8zH0SHwHyGb8MdGbnhYg4lpVINdzhMxRxrnAuuac6Q6yRfxA9DKeuVCR+QC9IxBATjuPYjZ9dvRfrwb17r9GHQ70Z5Jo8/G0WrPlYRMmd2deCxtP5HNH4/3bKcz8UWiLNogb2S7TBfFzsXSAdb5WzqRntD+IqxHa49D5EZNBuxT2ZtodAAO0CtzbY0E01hlUsE5S25z2bfNZabvAzWFVNk2o30lK+5NSFW0BHQ4eoKvzJZ5Da86T7e2YveP38Tw9p3o7A3VCaQivJQpSXP7djKMrsB/eWM92rv7sfOHr2J8aytaB+MEvvIhrYV4XtSS/9QYZkqDH21i+Wbp3gQCL8dh5iQcvQi+Vu3JFfGOxpVH1e7ZNVLr5ISOtYzU701x1yRIuB5hwE8nuAhUy3QSH0e4dgX2LsaH75SqrsLvTNJDGaQkBNb5NFr7+zG9/yCm9+4L8PsxwFbBiCRtq2mFlnkDE34wnUVHwG/duhPxYNujhKWtSS2hl8QFPFN8n6e6WpS0j6sL/H2ho2D3+eryqVTxxfF5KNFcSTIC6Aa7LmF7014+WMxWVj359gT+ro642b8I+Wjmr7oBan7H8WmJpUomqAjEZod4KntjaikhB3Xq8SjGt2/HUFp7/vhxdKTh26iVjuIp4qKszizQ+BodWtL+a/IbCOiTrTsx+eZ6xPYjaXt1BIVtwci2WWwDIw2tlPzhJjxKx8mg8ssmynUSHyWV6Ik/kyNQW10f0xFquKMa39FO4EMSq46HAC+qIqYRuuK+zvvSeL0Fky80k/yOEWLtvfi10UjnTM0GbPL5E2km6Nu2aZAGpoWMvMXEgO9MZcII6HvffhtjTVA7BwdWDh5LWeYUkH3jqaP4dALEIb9uX/a+0ps9eBRD2fdzdZjQaNEB+Nj/Gg3cGtV+Jz3VcaGRJw3TLNtp6DjZwa+FnrcaBj7MuVhxKDP4et6yr5Co8DUdOCmvALW1z2yajVHP0WTSUi0NuR72KYyoFoBrtD58tCeehmqjVH6lVIZAbHqEhXnXcqdHHgLm3m5MrOVvRezsWjH0uNvK7JNdl8iAuC11BQNWZI3f9opPW7Kc3n8Yo++k7e/e16gh+17x2u5YMnWUzgKzSOGx9X0Ti06ov/OWxHnIubY2xyYfR1U5JkaOC1XLUI6+MVfC6UAZTwJ9TbEylBIT44D2glcBpKUl8LYarC2bqS1ws/4cY4ZyWOcTHcUL2abWZKUwFALm+jSgbwq98uukhQQNG/yQOn5fdeqixaXVZ1t3Y18T0s7jnVgTWPvgWyBdCLRsSZjRKO2+4rdtliNnVUpyy0numkaA7ngSY5k5s29YzdlRf2GEVRoaSWYypGZKj+ViTCvE6amBC/Ny6bRtUVu82fLNc6iC3UpBvAT0EwELQzV/wj2Fmr71nKNBzwmNwLEyhMBzOyy+BBSPpbV2h2buOMZU/ipEm81RClU1u+PLvdvtmukAT6PTCPVVUrZDlotfTBeE53tDj3djKg29f/1GrEtjryskO+kTrIKrTJJWvycZ9aT1AXqmxd3bqeYBi+k4urLx+0p4IbDvKZ35t9L4B/spe2UC2IdKc6zsMHgggx7xl+tXSc/bXireoeNJRBoeRcEJ6ZEkkcRWnFIOCykHk/0zz6aFcRIdLQMyq2kvGTLg9ZdQVQYz+Qjwkxu3Y/c3/xB7/+E3Eb/9IuKGhvMhTVGGmGeAu0nPI7SLQi0mnmL07pwRD8ijBB7txOz6rRhLLoP9YawLpD0aAri3xKzhE48GlYpuC/Qtq2r968DEVmOk0+2pcwwA+cPHMfzqm5g/2NYoOrafVI1BP1JZAD0Sc+PR6WqjvUY6bVsSPk2TAvZCbLqbSCEc7O/F/s6OpkuPY39vL2Ys/1aQkx+S0PWLWBKt0XjEAC255eQMskDN2K1ypSEwY2Rr3vq7/ye+/fd/H9PtR/HRDz6I9Y8/jGv/1T+NtZ/+JFrXrkkFdtz7WMt2JZYVQSC1Q1S3pKPFTd/nrEQ1N6By2oxZfY9zex56ohQImGVFJpZqgLkmrgf/8P/F+PrN2NTQDOCZfC40FMxks/OE1FQN2BbQB3OZfCqvQd6RxHvqEUrPZozcYUQ9VtL7g25c/a//PDr/6PNYvHcthhotd9UinVjz/vwNhekUxeebZMtKPVFiE+17HB11pYMdpQzzIlLLUiy5AUhSSYVaiApDYCMDq1drdBwONZ/fjwMdJ8hZzmubG3Hl8uVY29hQnVXpZSKl1I1OA61yPUydv/z1X/41UKzBGbKrrQieaDSSbGkIbj16FHf+/X+M7d/8p+jdvRfdh/ei9fBhDLe2YqZjd3SgeZbCMoFzi2iSK23X0vDc8hp1ITQdLMKVanNHkyOu5Jg+yVml5KUfwuEUqsAvTk4+XZb1qkE5q+f248JpKQaSbYYs6cDOGX/NbYTXVAL3HsToi69j/O3N6B+MYh0Tz0OwAtCG7vh5SfU7AJuGwQ8v/GHSU+PnAk3KnznSREN6e3MzOmroVp8JMIkBfLWSsiGc9QjOtrNI6EnCNaXI9LteQ0RM4iz9k2uMSsuQdipXK+8kOddmqcHyKNlRdrGMX7khTdUXX0DvSGJN3tmVOpFCHcvMmwn0c82XphpBUz5SHL1B9AYDVR4hOvVsfufFSVL62HlJJVgFfQavjDbiyCrx2IJeaFgW6NXjRr/9Q2xevx0fye2K3NY0/Ixu3JSm+y7md+9Ea39H7ShgWJMpbnsFmyS5UcpaUv0Dk3obnzZsuzJioSDPagMkJ/ALkbTTzIPTE+NcLk01Rj2u/ORShV4ZV3nCtfQmCR4wdgD/3jBmX34dI5khncd7scHDITRgIpf5qpJSqcUoEmY8HC1O8iRtdTTuqAKzCnYyo3F77a6Gdtn0Hc2JLl+JjrQb241tQjhypoXCc561Zj7Ua7HzyyvqsfIp6Yj4hTNMgjKvoBU2ksqZ269QdYL1Y90hyrpyne3HH8qvrQ7qkXJpRchgO2CeuBuLh9sxevAw5qp7XyMky7komU67Fx3JeLCxHt3BWiZOZs7EKatImWHJ3sUqRView52/+PVfWNNDKQY5oyr1D3impRG77BdRg/e27kdwE0Wa/d1BPwazaVztaZI2HMXunTuxd1OTsHv3oiNblBZpqfFabYYiUJC5mCmg/tGGZAfw8WfT1bINHTTNrtQLyXjwWwIsw9XLMojUyyU5+0KH/Gpe/NR09JNCTJmgGGSa59q7GmguLb/3+z9Ee/txrCtc3TPjwlsFK9mMXpSI/nwsVPyystnZi6gdEXB3+v0YjUYykzrRu3Y12gM1uBqeGEx8OwrDuYt5qHYNkucyT1NmXH+db2EI+EDVf3WsIcqRTNPTRKzK1cu4koNXZjD7VMGuPL3NAs0N4NHuO7u2FObS8Gh27kr3FK+nsEKPEpP01eG7a2vRZ+RD0y8z4UeBfZ3yqIRPk6unNb0dTKtqQgajG2XulQX8uhpqWIs+uLMVl9cG0VZHANQ9AZyn/ecC/97dB/Hgq+807N+O3sFUPVM2WH+9tq8L6kFUhWTPCiMKoGdJtKuTltU+GUpsquxM4iMMdyBTlGi81HrLysMIoFzWkNWLrDmuXEpNiV99yY9LnxfOK4OapVu00mJ7J3Z+9/sYq5N3VV/uTqfssTkS+BQfdlL8GfAcS7IWRu3CSluXjAQZSYSMBPZHw4MYaYTtqbG7mjNRb56qylEDdhZJNcOahn2Ss54uQZFLA/AUpZ4rHGk7fR/zLElH+ZfgPsepZlu8zR6AJAr2EiEbg10nnifKBFzIVg8mppLluJgz89FYSi9HOefKCKH4YGMuxTq4tBn9S5dkQWDqNfKvGh8uVM84Vq4k0P/6r8u5KCvqICWUh171Ut9nYThSBpPthzG6eTM6avC+8gPo3KCisGvdnqZaKvLBJKYa9ofqAPvf3fAdx7X1dSUiUasxvWmLNI0zxJivyLBW5LIUA842zLLxVxskh7T092sznA5d48kxoVK9ymMjhAuS11V4OfEmP/1iq7N/SHVdyJy7+8UXsaYOsK5829jeGvGWLa3oNm8yGedAmeGkUj7FxSU5z006IS6jLHOqsRqemm1cuhyxvuFyzaVsPKhj2zqKItTyn8Auh06zLCufJmWo1V8zzVrCqTr/DCzILztTEmWEaApPMYSJ5TVJGeyjmO7sxOhR8kw2vIazaE9QrNLmwk+bRyUVZyGZ+uEa7mCvrUf/isw8MOQ6KwCV0b+l4wxcYhPHJi8LJ7KmpzK4NSPUXwTEsN6hgRiidNEe7sds63bs3Lgdl2VrtWV3MlS1ZdJwl7aruvZV8K46yFy27whT4ObtONi6FxsjAaQvm4whSmkhiNZ8oox0pOBUKFumdAidUj+liW2XGjHdU95Z9qwVNVEZxatalsZr0OErURWYOBu2XhdvkgP0vgm1FY++/DLmarA1dQLVwneoF2wbZjVGedMBsyNmAhXwaHsXC2fkucot88K7MLsrAVenK9lKEFPJDaD3330vWnJDRlYcyKqkwl89XyZ2rNtRKrKqmR+NV+SSEsZbORXGn198fE9HbJywxG25iadSCNLsC2n2yc5jscwZ5isCe08do68UMNs8fpEBkwLS0GlLgJ9zn0cavnv1SrRkUrsUBCT/LIK5lqThlC6kWY9ysKZPiKxERmKulE65YYDtWC1rtBk3XmYPtmP793+Ma0wwiIIWLL0f4HbVGJgEHTVclx4vO3h8515MpPn37t6LuXo79nF70DNYWOEBWHN1FtigJ13qRrIw57hV5gfSMd0UyDXLY+qz2kWSVmcZEq7k82VaST5i1qgOs/v3Y/93v4vdW3R21VGdnD3y4M7r+GTlvPXrRDIVpGfzxoDCpebczF1X8ibeXOkALCa5XSay8pgD+vEk1mXmtNbXcjXHM1/COmPTUiZHqZlV8/xQ+HJR/bmsLMIZPgx4uaicHl11aleOANcTVI2Me7t+dmCiNp8e7MdC9egILz11DJZfsds9whMHHEEoP/IQL2Ta9AT49uVLClzqip8FX859Ui59Vs6VpKkeRQZ9yaYRgUpZNzUiKRQXnkqrEXb3Y/SH72JdjdFFywF4hiE1RssF0/Vc9rzOWMpjdaM7nXtmvidzZyrNT89flM6C+dT2kCLQuxGZ8JCl3BoFdgEry92nCMznErxO0hiAsg748FupRDVxbJ7jZ+UJ4VAbDy11/bvYkVnTlsa/pHKy/6iliRjFba9JA0kO1Ds1fclX0WlQSmJUQy5sdsxlprDSYTpTtxoQHsB3BI62ZMcKUMju7VyWibOpMaYAgDkVXbxJzv4kqn4cXRY4nVZlXDFOFLNyhtAZ2lgKwaM8Gh4/kkLJCdjcqQ6BHQU3EfBn0uyM7GCiZ4Woeimsw6NYGE0hRjKwpH/kuJBi7L77brQ0kcWcW2IcP8rBUelB2RmLt89E6bWkzl/85V/9dV0uBGR+x00FPCFK27iRKASrOEJoezSNzvV7Mb5734+/dWSe+P460w7CprKWEHSt4Y2GW1PjXBYPlB7D255Mhf1vv/VqT49Ky+Rpr4vVmAyVRZElUS4nWBjCn/K5jMVR4QAMTZB/RLKH/g4T0WsWPtcPYRyjpsteIwFtfv1GjL74fcwePohNyaenBkJL0VBembCppkmuWt1pqhz5R3o6Gjm1LM2cC+EtRssDeuIz3PPmBd6g0GtJ46ujPZZ50JVi6bxzOVobAzWVInlFh5xKqpzizPlJhCcCLuXNeLXEnOfBxYbz0s5mQA7gBVgvMbvwOkpWi72DWAB4TVAXrLWz1UKyYRKLXsPsZQMjcbEQPF8iLgTYucHJn9Jf2LTR6PbOO+op6gwoV/m1JAvKwXIoQMf2x72+gAxeFvoIuRXsp1C1l6SL+FCkXEXRgB4TFarzzrVY//GPY18FGQvkc7ovu6z6Qjs1Y2LHCKAKsaeczVcxHaqS49hU5a8pyGV6/u27sfMf/yHu/eu/jUf/w7+Kye++ivaj3ejs70nDHqgMI2UtMKn150oaXmIHOlJGehtwSa71EZUq4dJwNRUvcTmrDtbyahAN0Y81cT+4fTve0VDbV93opG1GKACobOcqb9rXqzyqAl0en2A1GI3GsTAe4IcC9JQw8wWHRcMJUH2NLAe3bsTk/l1p06HDubfmmVklTq5pNRmqRxHhBa1lH38iXCNsvfTyrY6YvcsXgaGt92W38zC8FOHw7l1p972YYwJK8QEPL+tq0u99NICdumPGmBsZqYOM1VGGTGQl3/YVTeDR/pRTMnc5uaoFEntDYJFDI6VjqfOXf/VXf+2h1BVB8DUd/bn34qUEBWSeFNJUzpkxUV0czDWp+0LAFnh5wRE9VsTms1BvD83EdUECYiXk0UIF12iBRkR4AzmtM3PfUfg7D+Lgv3wZrZt3NHpIEFc04VUSAH6kuIwjpARzd9MnFFZB62oJw2GaEzla2X9J5aIcUkQixZlwD0L1w770tgAJxUdNwB79/vcx+fbrWNc59yU6EjwNWYdkA7ZkRRlMBQz09YbuSUIOy5qIijftgIz96KH+bNYoG5tvQrAfJVQ9x8p7olEVDdi9oskdZZXtT2rMA5y60uBIi2B+1fKZCMgFMtOBcJW9ZRk/8bIuonRi9FVdAVdlFAN7rx4+iolM14lAz6S1K9lQIm5COS5HndBJwDdsJUsaXKj81uJSqJi46hZqeykYJq9XrwpwMh/R7hJAjm7J1Qyvu3rl+kySTZ+gp0LAU3JwIo5sSdjToJ8qk5EcDVZC7qsn3rgVB9t31SD5zka0GnfO3PORNlQb2YBfqGF1Duh1wNQZqHH7Y4FuOIkBy5w3b8WD776J0aMHsTFQRa6sq7ISmvKgKf3GAc48H1BSjCzKiqKyUCAXCwa5rIhrxUNQ+rNnYSXhwcn1Jz3Kjh3P8fZW7Pzxq2hh1gB4D9MiGssxRW5Q0pKLmBMOmVOe2xNGQI7XjJ9cb9QBEzquxhAf7WgRJnDGgvJYKqC71o3+hiZ3A9n4dFDXWaWTfAx6cR29jROfiTgRkzQlKK0jp/wjrEtWikd9XT3yp94wgpZmn7Nd4BF2+260DobLtzq4SYhDAqXOCXxxSc9EWlxYOepSZWdX6pi4mif12YKxyQRWnUJ+WZAaeUVu1wYfoualzg16Kl9Bb62FpyXCmViF8POgOme3H0IYoFoni+ju7sXON1/LHNmPNQkcDeyGopDW/FRKB6GJhyCwWWlDJ4twzKlBOM5l0sxH+xopHsd0624c3LgdU2mPgdLurq9FR+aT5wmkASEIwCnbmwYDOFM5sSMR4XBTxIJwhBpJ1DiFCEdn9g0oWBN0bNLR19/G8Pat6A9VP+WLSXOInE6mDdCcj//156rbRSf+tV96FLnwIz/KbXGno2XIMl6Otgqrf8dRI001qo7Yp4+JNViTtpe9S7spDZgWRBqUlNQMAupX2CWyRyaLeePkxTZXyE5pp+mFm/x8Lg+NiCw1Lvb2YybATx49jtnubrRZkXHxlDphkZPKS/F9D4Vz/ZFelrCQwjpn1x+cYUIvYiqN3t3ciD6mjSaw3m9RlaiIWEdpmaZoCf4aMDM2dX4t0HNBQazpcHVJOcmQvOKivg0BZ6wr7pkJ4h5Shl/IJLn/IPqqJzeorJH60vtefpIjiYJwHd2w5JeXPuJk0sWkpRGj1/JksfNoP/av39Ykcium0ibTSb4UiTt7sd6jHTMugFfCXsWQ5MfyZ+8oDZBgduLJVMCRVkcOTKwAfZ1ULfYPYvKHr2Lvm++ivZsPhvBMsBu+RqIAeXLovPlXiXPqjqZrOOOw5AoJ6kLZbaKRXWXUZ091lONU5Rmz+1Bh+hub0V7fUCUIn50yHyckTSJmhpm6sxKnGwnn5Jtukm3r7QFqQzcbjlyj2QG75IJ2Z0WGG0sLzXe4K095sfFdUMoAE9lDZ5YCWtXyCAFoAdvWhOIuhJ/+5Svq0AI9WGIkWJb5STrJ5xDwCx0CfYpJRCAzHvJRedgxjxOGBfsi0MotNFGnFx1WNr674WWqgXrljKEW24vKUnmSwRgljtKgIUkHbbYUPgcJqMtSnOLMJVxMqCtqTG71b3/1Tex99XUs7m/7iaVWT77S8J7gaTLNMinFnaqjAYSB0sVGR+7Ok18CFHK2Sz+Vk/V2l0+FU348CbX3u9/H9O692JTTmoqfz6vqYpVMJtm4pm7kVZ19Rmb6J2wtQuaPu3IsTCD+kA1a01ZhJbxZ1YIpC+VQeWcyC5H34L338/a8OoOTEoCIzn3b7D7IPJkymgCXQgFJ4tCnvGYuryyJAqK4NHlGs88fPZLy0Qis0Z07q6y1E575lzsHTBw4G7lR58y0BluVIdn3GmTXI2E0fXd93fZ855JMmwp4VyxpdXb4/Dhaan1fKJu/0kSWSypY2dKipApoc0GngB7i7hlbD2zCqLIIrvd4N/Zk98529qKnIWkCaGUK8J72KlQPq+Bf8YhrwOuPf0ynnMApOQkYjcHmIt+A0Uy/Jb4kCW7sT2L23W2B8Y/RuX3PII1L67K1EIoaRxPkHpMf9dIu69kkT2dzTrpoEn7FiTr7BhwdVJp+fu9+jH/7u5jcuRs9TcjXVE/uSOe9CkSTkStQK9c/k4LnqX70z6Xrl5fi/MXuzptLeb2UDQEx23CXbLxiVRh5erRVvOl4GgcH47h09Vq0NiQLtniwfk8chSEFdyLSLknYQ0yOafJQPzqaXNDq1bThHsSutPnjx7ndd1ujrQDfUbn6Ck8ZMj3FqUyiniChQslIhFs9UD+ficnPRw4qr0DPnY6Z4g4uXY6B7HnfuQdn5KQwTSqxn0mlFBmfev66gL4Ohg6BpCgQBZHwADw9kKwBPDdMnB32kIGy8APNE2mCusbKJLMvu95rsWh+wq9yLwXgVHnYKwHTUcXZe+HnJaV950weAZ3SQqusTTTh1SiwJ0A+vH499u9sRVdh+tylZIhH7pKcRwDsQBW6pm1aliHJEyvqQESO29sx/OqreKhOTD6XZK51WbaUDY2ZV8tatXPtAP6Tp8HqvAqXg02IpRPAxq2CXoxriZ9PVsEKJAB5PqUIfp2iQvLYHCNBj3BYYzNdSM7MeQx8lI28UDcejSUE2o7msoaFG+QqcEJ+RbOz+jZHq6Pdd3Y9+gF2Rl92P5KeO4jBrngqX11B42kw1s9JlHRX6Zdr8ofzyswEnM5vnAno2PLW8qzqkADhfHx+chaF6jkpLEGfzoWXKikFziNqwAKh9XTi+1Dym6tB2DuPBLqPBZYH9zWhP4i+wNZXQ2RYCZ5GEfBNRQIGS6mwtZvy9I0YdJLjUH3FZ4sCjc3+HJbpNJHtsHarfEIjy/TOg5jcuBuLu4+iN5TN3elLO7C8RaEEJmsJhEqmTjKpZm9HGk4sG3lHHenBl5qjqME3ZDr0Zb75DWVoeaXHnhiD1PWoiSj9xp9l1yAuDYYCChqdcOSMfAE8aVUtb/kXN+oxleDH4jn1oZyYFaRR5MVrSfb296PHPYNrVwV89puTs3Jpgp44pbpPEBPUA+z1x7nVF5sdLQ/Y1elRdF0pAO8FQomp4zkLaiEceOWJzqkMmGnwV28UQRzN5F+vqCslo4F1zqwCqPR5duCK6lE3ly3lvDo8i5zNMUcIWRSXmtoqA5wrVgkI284U05E59YuLrmiW/bMfx+KHH8SeBCTjQhZHTzN6hXAg4uiHwit4rlToXExO3kym2nLMpUKFlYBZe0ZIjBxqO9msxJVI5yOZHK24onDXHu5F/3ffxP7/9n/H1v/4b+LOv/qbGP7mNxF3bmniNVR8NQ6TUzRY1UpZ4dXRbq2YPNz2vprh9mN1WNnJNDC30ymkh2tVQ+e0VTMVg1iO1vLVw555kvCGqIn+FCFdSPiJQxIBPFIxcdWl2HchVQ53YFhhGDEwOUOj0nDrTsw1B+HpI4CJkrJl7/fll3I0tbMbUawJ6nx3N02YB9s+zgR83PlMEHeC86soSrDK0QVUmmoH3NHsvP6R0UVod1ktGOeblIAXOW+OYiIL2GCCewxKXeYZ+7GkuNwZSrhK9fooPycRNDW9a1OJc2VGhioIlwAUAWLDWVsQTA62MwlCJVXQA9nZ469uxlWNw+zH8TtbGAkwDbh51Wt7dCASf2m76tKFLiVHoIThJgWkRjLoASDCQSPRsQSGjsrYV29gH8dMWmpfI82Ep7e278d0+6HvZpJKLp9REY6lApRd5KU5Oc80L9n5+rsYas7Qe7wXm5N5rKMl0fLIodSXu5xEdxJKqvKyHjSoqTjWwGIv3YnQfysziF9kUYLV6FxU+TsttQGsshLWjx7asygQyWakiTYjAZNAHjMEeFQzn94i30K1sONhLPb3Yr5TzBgBH6DzEAcrOG5vpeu7phDKAyYuZSvl49pgF4GleqMIWdhbRJkdpLJ9iK/yKyipjomCacMDM5ob2lQmDdIqwU/kE6h6HQo+mUyytKZyunRBoKtyOoJOLDNdoPVyIJOApppQ/c2/i4N/9i9iQxqnM9uNvuYg3K2N2chD9GTA7SsBVRcdRbbtCgGUulRBAy6LhzuOZLgqg8lONVy72L3tmOhyovM9acT1n/40Lv3qV9H7xS+i/aNPIzaZ9EqDsMqhkWih/Bcsd04XsfflH+PxF3+I1r0HsTkcxromwr0ycbVpo1abKRpLauh8GtFApRyU30exqZxYWDqqzSwrMT5LM0aeyygiu+BQHUt4gqaoEkS1Deg43EFdqHMuNPF/OB3HZGMQl3/x87j0y19EvJMP6nPPJG/Ru5sUxTGJhYCORl+MpenZMyP3PqOrQ2YeS2qeN8nlKt4650h56agus/L1fRiaF66yIrA7a5rQQ52zvWVw7VoM3v8g2jJxCMoI0vGW7dOTs2uQV2/KuYhSlsKYly7WEj6vDrAIO4wdIGje9V3Zf9/dieGNG7EhgLSn8kHT99Qw0vLcaSNil7cCiLMJcLKolmnWvJfX5SLDF26GUXw2M/G2MTaCsc99Xcnd+/ZGbH93I3oaBbzn3VEEHEYxnRk4vLfn0U4cfPVtjG/diTU1/mU1PFZbTNVhmUswSgFcbNcab8n60X/S8qR41iMnkGPrWOqiAuVV8pKOOHBKcVJi+qMiuCtd32W2VlX5lBca00BTHXiu1rfvCcef5OIHrXel2VmR2d3h69mS2Tz4GBzsjuy/I1TLdJQLHXJGDDqxvMU5ssmtsik9MWsmOnIHlrV5PyHGBjM6qtycgNn/pyIn0+AjoH8xqoWYCmzsnGPoZQVn58sv4hKtpOGzrclXS5NPKgA+2hrL6tCc8asUyrFW8pREzBp7c33TI8r9W7fi1hdfxh6v6eA2+RpDp4Yh5g6aDMcfv46hJrCL7e0YyEQY2IbT3AHuauBmLlEBrz+qVtphmVee4FjZrk+c+4/k7Vg9TkOZQiXfnRVQphLyroA9k9beZPWDZT/sdl1PZeuPNEEfqc5+2k3annsdvudSxH+2MiXVFErfPNRhs5l1xE/y8LYDOQJ8nopau3Il2msakT0nIByxy6nPzk5nAv2KGMJUMVWA3YaTb7721ze60iy8EcG7IyV4Kl63Kfiv1mJZG2rGBcd0OS2RPnn11MmswWR+jaXdHmmiuiuAd2TGDHhD23Ac89/+Lno7O95m0Gf+IXNsMpO9i1E7wHRS+UlTaXnC6vQLlUrUYq9YP/q3vV0cM2aeJdXj6cixARHaRLJu+74IVZr4Jl1fWt6vy1BH95YBVmQOBHb5+cFr2ow5DcvKpOEUz1amSgAehnL0EHGUPJb1l5ZnyZZpdq7NX4oeqzZ1dFrKzkHPjY7Y9C9ORPZkA+GxZfSbb2L4L/8mxv/r/xmXZSu2u2qAtkwEDbydApqcVqlSBpBSQOAWOs6lometpKWufGTv8rjZWPbKriZ5e+K5htH1q9di/f0fRGfzUmxI67URNPa+5hbz+VgTVoF/rRPTfu7A7EzVKPNuscWPkIr+rOIu/Us1z4NSdjqRQvEr73p92cXd2NX1SPZx/91349InH2ti+I6CCVgCe322ldeJaPzVCMBqmdoOudtMOp8Ceq3eSjotAI8ktulxE5GfGLNmpONcst98773oiNldmWGUgNBOkQh+XnRm0LsSFMrCGkc83o7Zf/h/48F/99/HNQ2jbVn8sxZ3R7PyhGVIoxEgD/UGvS91UX7OWknA6fxIS8LTZAhtMlaGYzXyRMwkqdfpxzUJuiVbMi6L16UZpd3ZMjrT8DUSYzJ0Z5pkiTHP6oKj+1U5PlFg6uU/HX2ex6QS37+nJ4MeRn6qD1dzAX8m0BzofKh692QuXP3oY78wihs97Edn73liXD/ExfwB8FxLeZ0HGfRUWqWytejC+VIkDxXANz51SkdltWb9fQGeh9+ZfBOOQqoO9fS8yH3xLLQcrhAeBbuyEa2ffBb9Tz60RmXVnnX7NrczLYUsfV2+y6vqvvI/Oyl9GpiVF5ZOWUKdjmMwGcemjld0fUVaboMHMe7djbhxPYLXZN9/YJOHF9N2RpqriNdkn7GrlBUI1r+Xw3UhauJJpBxhquk7rQpVOXtG43ieRHIscKi+vJWBVwsO1B7t4TAmmqfwbC8bxWwCqbC24VnBAexEpqyMAOcEeChr6Zo3KPOqjIxgJq3ckOJxwKUdowOlA1bnTacGfa4clAJCFBZtIW3avrIZV375s9jbXIuJtAugl7UgyppUTVkuki2eRnpnJSXFUirrGbzb3a/LngxjPj4w+PtyW9MEe8AGLt/d3UnA8+zudfHt+xHc+NqdlyXWjmxfypvM6OQNaspnKQtYcvBemqI5vbpSWZKoSqLGOcovTIDV90NUFhYNfNOB55bVoZX/moA8FvDnDx8GH3vwfh6XS3lZ7lRHLVL4PInaAHxTM2myVv6wYSHNzhYKdlPW7dFQlun8OmKlU4H+icZx7bKx52iyQS8W/+hnsXN5I6YabjWlVLtQa/kRTmcr4ENOYMUczoPUAXOdOu9ktsWdjqDHzS9GGoGfj55FT+F4sFtlmnFX8pvrMf7qRrS2tqO1q4nfgWzesUAl+ROtMsID+AY/buRZjlwfT/bN02Oo2QFO4iXpFFDMscvJkPVs1ZH3xXAXel313lDnm+7txvShOrSOvrnkNBRe4RaKy60l4vnVIudErmWVS5WFHf1jwPNOH4+IrNSUyWv6c5B0Fe+8OyL0QqB/QuhQ1kFgF4wBBfsFBuvR+umPovPjT2NfFRrKRKh78uro7gP1qWzH4nlehOC4ja9T54sG0bWPtTUUJLcqCCiqwPIur8o8e7CrDrAV+//lDzG5LRMIkwCiI9FQNCqAK0t/vvXmhlZHUBak5beRif1qQ5gyHZXhC1KzA9CRvT+JJAE0daGaqrXrJObR5fEebxJD2wv47GsCTArvDXeqC0oBRWQ5nRPl6NYg8oQ052Ab9ETmFa/oW/PGMmSj0EQgGHWQnL39wZHOj54L9MeCvUl42Z/kxDwbe+1yXP75T2K+eSlGGLncARUS0tYlSoLDF5lAYagez0IqM3+0YmVdewmx8HIoxQttxykgkqARdWss0OzK9Nneidm9+zG5c8f2Md+W4na9yy4g+/M52MNjvj+VN3lsN7OipY6U9RSrkf2Ev23psxOpuD4A1tVQnjoyQcW6Mqi5h0IQ1W8q4LM9gz1J9fUh/oCG/EmLB1POjVw4TiiYeEnZ/pKKN6jxvk62kS9BX/xVE11WxquZxtnomaB/VmZZARHhuEAZttT0ss8u/fxn0f7BBzJxeqpgR8OZzJ+S3HLIW5KbLNM5D1L6VuYqHDeomIT69n/Jx6YYnVCA4aMJrOz4e7CwiuByiukTPH0139uLkUDPo4OTra1YYCMfDJU+QBPoFYb8/C4XWJof0PNxgaWGK8D3kEji50CuS6NOHKsPZceFsa4vrTnjIwcCPS9ewp/OwpGOyFbwczclSO9Qe1JGyVr5TcTs1/LLWNlcVkC/1E/H0HkB/6mgf95M3I4EVSUXLF+0u7GgQp9+HINPP4nF5UtxoBZgbwyVJuhS+5nsUvh8yKkJW7CVuFC8ZEMBm5K9OmIJfCIATAT4iWTPPqGZesm8xSQYE0DM3n5NeHkP45Cn/u/elfa/GwvNAQA/GOKOqHcheu1bOZDvqjT6F4NEy7XW/awE4JFrAfyhNnNXSAZk0vwzafnR40d+0RZAY1RjTsArA/35m/MkqkiaHGsHEPORCkDfkWL0uynZk0UHlJ+DUuJmNRp0HsA/tpYk/CKJ+7UTrpM0HnZrAVXItLn8+Y+j/eEHsaOcvPcGbWvAZ9wVkV/6n5ZKCubMABby0KzNPO1FGQELmj0nVX5IQ+p6LrQCdgM+pirvNHpyG8iPfSqt4ShGAvvB7TsxvXUrFnwNkO0MMoe8taHmAyEYOoJNB0lFjZv283kRtQVYKXffkMPNdeRMear+TG65IUXOI/bdMLHF/GHtnjKrXl213ZMj8FmIAqgs2SAma3rwIkfeM99hywHmsDstMQifEbIoTxboRfF5lJDQITpNYuhOiAp5uU7XizmAakdPoJ/96KPY6Qk+8rcv2hcQQkQtedaNVMfU80Ry9MJPkFVtg90BdCpmvTp3OwqEOuJmttgBO3cYNEEV8xYWND1vJ+b7uQNxdzL1c6OjB9sx4ouAfHvr5u183w9PWnn4U5awwJXmg9xdFgp3HpQ1bwnwuUUi6yLBFz+R6yRWmXlmmOdZeQHTvjotH3VjiwI7K/s8v0BZz4tq+1rhlFOKptJwc5KJbBtbXtre7V/86AwZnFKXwtcEjtBpgX8I9KdNhBVAlDiwwrqhEm3sesElPv5htD7/NOKdS9aogM11cD1KpZytfpbuz6ZltJPICFaJeMyLTwH5ztIqA8CBrc9dYt6yzJNI3jSnRuJr3R1pdzR8a8FTUwK8ztNf4RSfB8/5GANv3eUBjvHD7TjYuhuTW7L3eZCD19oJUC4kZgQTR+Xvry8ChKcW/jmJKrrDAvYEvjV9BT4swpTsMMIoXybcvBKdZ5F378hE292TttfUuyu7WiZOdvzzIiVG57fMSTUBjUnVly1v0KvDQRXwzXArwu2wS6XTYHYJ+tMCnliAHmGpKb3fwlX0HVhdrPVj87MfxpXPPs4O4UDiUgfaxZNGN1Dl4+nZIVbE8ttMiJ52Z+a5gM+b0lxQMhcQap/gQxBdDfG8XRnmKX9eXuVXiBd2k6g6HgkUF8HxYDZ3IXgsssOnRgX+AwF+T+Af3rvvNX86RHkDlaqoVBR3ecPleSpyErkeJFFBrxJZ+ErULM/KItrXzx1r1PFrUXQ+LO+t8TOxbogMC1G0yqcn0lSiqjOKMMWuDqi5T0+Ab7PHBm1Zwh4p8nPTi2K3TYTTAr6Sl+Dco0VZt/yxqbOI9R++Hxs//tS76dKt5MehNF4eKx8mB8vT5ydF4G1qU4AvLc9b1bz1oeYHAXycVHavuJgF7lofmAaDBRbb5rURCxOf5Uk+osxIwON18+EwhtsPY+/Olh9c5yMWi4N9r+ljuboujsv5iuWYXMtZK165cWoNz1kT4IeoRKhU6pN1Y2Kueshcm/G+yR2NSgBfGtj1atATyT4XKZYLSdlIQUedZ79SGTTq8ZKqfD9lBrF7hjyBTvaBXgTHIPCMRKVQEdzYYXksyaMsM3Lst3ffi95nP47u5asxVJazftefm7SGp7K+jS5AmVdifroQnkVVA7LiTmPWznY0RfJb5bkKI64d1I0nbgIe8jlu6iiAXjJY77VjTUE7o2FMHz30Z4r4XNF0aytC4G/v7/vVd090LJHvGTDJxe7WOfLxfh75IWGXw2WCqZOuKbvlVmWokEc7DaHozFzyw0qNrjHRWJHiTcy+aeW0SgQR91XQxLUsLgOpuKPhUNjX9tSlOr2K56KRFvVTHO+b1yWPBPruKxv7bPIRS2FKcWvt7Fx+6+F56HmAL+Xj/QFnIESRKxO5gsCqMJNWu+hK9rFMhfjtH2Lyz/+n2Pq//i6ubgiM0wPZw7MYIDSK0B9kwwgAz1Hu5yL23NTKOUm1RD0mNTOqIZvHeg4Rthn++HNWJtCY3OXElJnMpv6iSFdDOfvF/Qbeq+9EcBdSQPDwXpQD5waa/oFo3uVWevoHwzzxmsuKYopGJ3SXAPAF7A3Kq9Sw1qMttYYcXUZWamRPs+++01XZ3n8/2h9+JDCuOyZxWGWaq1x+YBt7X1nUTyTR7Mt1ffJlJFWxGFEBPnO3LngYjjQBGmjE7cS+ZDGRwrvywx9GT4rQW4hpbDc4XMv8JKXv89PT7jkgwTMSiSP4wiUzuoEGTBb81HjK5vKVWHz+eUzV2LsK49eKqEFdON8dzPh+7d05EZqe1ZlcoRFbdAg5D26sJVc3/GGViS0VS+a6+sE1/OF0mN9w95PXBGLyrEk+Gzr2xqNoPdqOxe0tv+t+cfuO31rgBJjMSQ5MLjGN5hoJkAh3enkTQVdmAFwfts57AWJrUfIF8HSAvPafks3VNFxUc4Hcd5qVBoBMkyy5NVG+O7LtNTLxhXLSpVp0OCbetBGPJPpt1NTdvvzmMbPN88w9nVxWd1L6iNKScHhAxK989ERQHo5W0hFVp+pS03J6L0BP0/hZovMk5VXq78RhX16+FK1f/CT6P3xPMmXVJIGI5rEJxOTxRWt2AQmAcBeWdXHbznLzy6rUCNwEGvPWhocPY+f27di7cSvmt24LbAIcQNNo1+71bXrMmADzZgKlk++YkXAQpnsVrHMEVmSdJ8ksDOeqTpPl02TlRxJMarlxxaOE44dl4s2qk8OpTGoXr/5oBKIeck0AlnydY83alCfk4U6pOIxYjCiMgAOZNR0/rEM4p7QiLo84HUr6Bekk4J8T6EvipYSU2+3jo4SqYwykrT64Fu+wEU2N251Lg7GsKaF4PwoTK0cuaX2PidUZ6jMH/Gg71RFTgju2aG6/IWw88Q2iHWn9va+/idnNWwL/I79nB5Dmtgax0mACvODtBZp4SlhFuJJT1ZZVboe4AN9/IgHQMtbR0C3g8mtFCCFQ8v5QXpTrSS2A1T+dg07hOArb0OOZtxMvp4QX16fLbJqp7jaP6Diq/xpfR6w7Kl8BHQf8cwI9lInXQXYJ+iIfLlpX12L9z37uL2AzAWpjNmBXSqiHhFDjfA/Jd1y5K41tDqmxc4OZwKOhnl2DfQEBs2cgEPKgx/T+gzj47nrsf/V1jLnJ9XjHK0mZgn6JbsUgYKoDzNgSIVOQV59nPjASr1zydtzsPHWFjS6AInKocs1O0B42PiOROh433ZbaXuFy81zWAfIqmLMqAWp2opo7Qdzh1a5gQplEV2D3tgObSTg+mzLHs9FR4FPGc6BMFBGqaVxQEgb09iFTtNIlNfVPfxJrH3ygMJrNY8ZL2BY9QHleSVxooi5p/9oGh6z5scHV/ABB5kpHWntdgL2sydyagvCGsaHs/NH16zGVyTO798Cv1/NEUPFY2WH3JNLleVi++iIr2SJDfim7o1wJaOtana5uFTEQKBMjiULkTlGZIbt7Kste7idSJ6jam9Upys0FipzJqhV6gznQD/LxQJVVDsaE8uqonj3vsxmUCBzK8Rmk5M6VzgH01IzCp61XC2iX6lBAv+AdlDJxLv3os1hsbAZv/WMY5rv/nsyZzruKr5BUdF44CyhdfwMVoHGVlHIpAJLG5gNkAzluaujfVNjOaByju/di+M23MWXCe+duLAA/GkJgZaTIPTSkowzRwpnqU1i/tRyMDOJ8V44LrCPlEfgptzS81+7ZomDgyx9iVCCvkiStZFCX60q1k7h86mAsubJc6S3EgF71zPA1UiPyS6RmG5wD6CESTC46Jc0a2HkxAnTU41VhZu//+JcRH38c03bX+7Cw7VdYVwTHubiEAE9iT2QFIO+1sUlQwlfQqaKtrkYBvp9LB9nfjcVwX9pxHmvShhuayK4BRtnX+wL/wdadmIrjHpva2CvDmyUkX4CLoJpye4IbRN6gEZATqYDfwJUbnRXw96WceEXibHu77M1hHkECxMW219FanqVJORV2EJNKVZWg8uShepY9W9yMspYXFbnQXTlbxT1K1ffkEC9CKf/zAr0Tc9/OS/+uKHcxdrx86Q1pP/s84rOPYyIhYDpKzWuklQmQsrpQVMHc5BNJXqx5+wvqDidwAGB75bW1KxNSHlXsaiTgE6J0APw0gWyNR96Tv2HNr86B5r//MHY10R3d2op48DBNHialJE16zgNu0uo6H8IX+NQRZ3Q0NDvF4f6Ajn6ofcGGuHn0lO9CeY55Rw6PF9q2J34pPzLQGeRUdeGcDjlyAuil6TllVGHyyr55kRcuHIagGbFcPoWeHeJ5iHY5B9BT6GR+SdDaoJQRCyafllJv57kiNjZdWo+Nz38U/Q/ed0cA9O71Eg7a4XVSE9wJ3BcjS0I/DO2cZBo4VN9yAIgtmRQ+NhhJCBEsW7KlYVC4czCOiez83Rs3Nem9EfO796PF8iKJse69NBuUBqAujN1Px/OrP/Au2j0/TalO6VUgtY0Y5c86fZ8TdUy2T/tJK6/mKD3mANykArFOk3mFyutRjPoWpiDy98f55N/d2PDr+tzJ8MOUVTgUflUKr5IoxTkQ0gL0/OWViRMJkKkSoGfnpYw7L1/2fvxJdD7+KOYSwGwmTSNwHB4mXy2dFuRPUqmBknJ65nTyEZbUNZVJDVwBynnBhNMoIOPZAz6EYeBLA7OkOJHZw0foprL35zJDWjJHfFMJAJX0TaSrdJhDuCOpLTy5VhhAz4ufWEpEKdnkAvwydboqS09hWhqN+LYUS6l8FNlVK2llNikzzw+OECHc7pqDdNbXNJrJrHXeCu/VGzDxeujJ0p6KEEEyv8t2b1QMATH98i0RhrrPPoq2TJyQFvBHchXGd2gz+CuhCnSD8xWSsaMszbSAVWyhpQDFgBYzRvJpqwNgHKwrQE/alonmWLb+UJPd4daWbPCH0RodpBamPiVJA1RypSUSrHDWnZNlWRxY/5RHwOfDzXxcg8nshFejMJleFjqB45tuAFnpWmNbdZOQ3OTul2SxhRhbvgJeR4LQ3pmh+BUTZT8jLcXYYP3SkHlqIiNuWixm7OeQMN9/NwYycbofvh9DDYNoG4TnRnvJ9DqA3iRwQ33NEpIBQHkOlakACOAXba1xMtYExnUhk31LAJJ32jy+fSt272rCy25O2eG8iZgbSksiWa6ZxBJP5zRPbnHI5UuWQKf4GxHKTwGwfHi8cMjavSe1su8BNp1I7UTQtMhKm7n8YgDOI6M69qTUvG/e5hd+Yh15TrZSif3K6BxAn5TAT0pAZVU48wo8l6rnTC0ufRRTSbT70QfR+9mPYrq5lstaKg4jwsui1w32JOUP6nVEZpabQOy5zJIzWKJKDPCXnLHYPsDXWPoAdX8/xprg7t2+HeObN2Xv3/UNLn8oTdFZ6jQQaQNGDu7wYpsLvDkCK5T8rK2JQIMBfKXt7+YK7GNp+gXbJQB+YxKdKz+6hgz2LDTe3IQy6Nl2gLvKTOkJ7eiEKeRyVmp6vASihOdIBVQgvNSCDLhZAbuxJQh/RACfD9+Lxc8/i9k7lzzL54a4w5xzpS8G2Fek0khE6uBsFUAOpRMUz8L68VHCQIgcedwQ230y8pFXbfP6vqsC9TrbFATKA5k6e5rsjm/dypUeTXb9ZRHyKKAkWd7WsJD7YpLg564s6/+Zn8DJXV9NZtlVuaZ5F9+emj3YztcD2oxRKrDO/fJYyLaRiGtGpv4gWry5rN6DIZpyz45e+DVQKeU5kSqhehXM5m9zAyAuDJuAm9FtsbkenU8+iP5HAj8CaDb+OdBFA3slAMiH5XIHqLuA624wwJRZ/7niIqnRStgamAboSUBVXuTUkSD5ru6GIvC92wEA39uL6cOHMWaiyxq/H1987M/YezsBiwm8eU7Kx/b+lF2hmTurPeTnlRnlw6oO26KZU7CMuWBvDl9Td2MSo0lyVHnYJYr50t9Yjzafo3FnyuYlmqMWzf9kGkeJ0OdL5wL6ZrFrpcC5z+oFR4SpwN7gpMouehr+fngtNmXi9Jjc5mZvIp6ZLiLYTVQPoKPl2Wla2VJM4AMO5MT0XsaDz91SMNuwWfqjE4i9MiMtD/h56ButvKY0OuOJ30k/unffE10eXp9K8y929635nQlmj7SzRwHkrjToZAAf8fkGmI7Y7x6pFW+iNNky4XsNcmOpMssuwjxSGjbBNKJ3ynejqneTiIM5RRRTPS4JhxM9z0SI8VwIkJ1YbjEHGs/410Xbe9R1vHY51n7202hvXpJ7puGGX0ZdnS9p5fkEp3Y/t2q9PGqWGwJ4Pli3p7NAx1NIrKjPpHUBo4NVrW/Nr5BsFTBjh8velyvav8ONKE1EJ7t7flcPz++OeF+Pzls8EA74kRUmz1JJMKlVOuo8vIyJu8rs8GQ3Zk9AHmkU8XO1+6stChSjlETlVXv1FJfJK9sO0OhGtmtUfrOb5Bq9DN1l3sdRxjhPOhd0GGgczfmX20tLZai3uD765g8DFE236G3G4oefxvyTH8dOfy0ONOvn5UszWFpiIhD4KSzPBSTQqho40IPMBFCudCSlqyaTE5PDJwK+fsZmXl7rvF7bBixu5brDs6SASPLC3JjJnGGvjl8lgiQ5Eh/Nj0z9QlqxTBGqjubny959XXCnd7Ijm/8+WxtuxvTO7Zhv35fJI3OFh9+t9Dsyc2goMd8vVVtQHNvscuoqn4XS521v3g/Eqw01QlB0Ss17jYYavYcbg5jzrn9Gb5sx8uTHOPEsxk71CHm17wjhkjHOl87hcUFRAb1rXlOrR3kAvvqpfZqV+Ts7C7sIkxckPdiN6d//5/jtP/vnsfHwdrzTGse6GrwrjfFYtihaxt9PkpAXw7EaU42BbUpiRSTYnpSDx+0QPo8KchOc13noymEuDGVvPEzIqZxy5vMarHg0Yy3P8XN6JYGlh070n0ujKar6lmAw7dWyQT/WJVc+uLy4ek0TAgGVzzMiX9IBiPoneWejnxlyl0LpamRuf/CDiPfewSemAvho0IsdNl1prvbORx/FYENtVkdd0hMxch+l6rJUaEvKa37PE/qlRKenOiwui8sJEq4O8kboZXCWQy6TORbqn6+Y9S9F6wcfRffTz6J9Kffaz4eySQXwdU24mANM2Pmn4RhsW8ORFlpOvLwnIKaBlttem44XiY+jVXXEOVJ6sguXa9wrr9JCIIUBmGXKdfrzuh/e69PTKLgGy2dN2rknmx9tPb7/wG9pa337bQRPcdFYvnOOpmfUnMd0MTHzxrden8m3Rpv9vQgeKL/30O3N29FmbE4TDTY3/ZGF7DSFS1uszlZcaWViVcoQGev86OyaXgWtCbjBmoCHNGwiR4nMTAVokr7OO7JBg6//cIf73qPY/dt/G+P//X+JtVvX1TATJS1/aaOFhDznDWPS/GytzVfkFSpCxfRBi3HEjAIY7F2pn/x5c0mVXXaAEwgvAFhAyDjCzagJ8wScJdMWD2lvXI7Ouz/IDxdfkj2+LpueQZXpNJNcaWJPwNE5NGxbbbN5OXqff+6vGB6MDmKxsRb9Tz+OLp/Soa0wb16AntT2508vVqIj1NTyy6LilM5J8qAzoN3R2Ee9TTJlWrIBL//kR9EbrFk7daSV2tJI7ZEmUQBYQ27uG8kEeXHToqvGkxqbddQovLVJreE3kakxYc8rrPUk/DeReduAWXWswD+OrXUkN5i5q+z2jrR5v9WPnv54XrmNnya3oxvXY3j9u5hu3YrF9oNose2ZpVHmGAJ/m7e9KUsU0nS8rxFYk1p2Y2rCzMbhNY3MaH1Pck8B4Ce1/fnTmUAPUS3YCpXyHi2zPHFK6KHluUqb1eHxgAdSKZ98GF1uWG30YsaOJ3YP4oeG6XYz6anGC+YCjZyZI3DnsDNL7k509EqGSqVIzfZ/oxjZFCVwIrsBxEx0kRumoRcSpFAUvyvtz0PfvMOe93PykDovpF3w0Pp3N2LBs7sPHvh9PSyL+gkrhUfmHonVi4aP7sXosUydgRTVNdnxa2o3530x6dTmTe2RWW2L1vqHd0IWLCYRrDQQUE3bnn0kaX5wY8T2CNpodyfm//pfxM7f/puY3dmKy4P16Klx5txUYRmMBpuOnRZf3zgkWPIjDTJx3rRoR6OB7NJXoD1eB1GrxHaRQ0McT1AN40gpj2XnsTP2vy5YceBurQQ5w7TZ6Ef7yobAfDVaVzXf0gTW9r4iLaTRx/1BPGS16L1349qv/rH3UwXbiJkM80Qc84NT0Ms0c9AVZyaKt+SUZwq3QTQOmeFcvXwXFnWDB6pGNmT7Z5/FnrT9loS+LVzPNCHi3cELhl++wiw7si32ArZVXU21Hgv7wLp2mj6vghen5OPSei523TSpFMdJ7Defif2WWjEvs20xKc1ZFiqrrXC8g9/GOtpbovTy/VTxZPJMNFmd3NyKxfXkeMjmM2l6gZr1/OF4HAdSRnzUIvh+F9oPvqDK5syaHsUq0Vi5Uk/6tR8VxKGmbAAmRnHOVRzLtuzJEePBR89ufxcP/u3/HHf/3f8R7Uf78YHszo29cfRUTOdYGkS9wBnRD2pHc3vVtJToQokv/HEFHEugc6bzTjUl87yETJhcFtn4ulGiZmLVGQ3Kv67dhp4ncaGjGnM+lKmIlua+iP78zhqZNbLm5db1d2oH196L7nsyQzV5Ha8N4pFM08Hnn8bmn/0iup9+GAu5qTcoSykno+LF6cJp+pMmGxRzWVSCVIaohIZBMswly/T0igurCu4x8n3/nbj6T/9JXP7Vn8UD2fE39ocxXduMFmvIfM3JYy5dSwJVh5jrONVxIp52xBoF5joupIWWG9tKXufJ9e84v7Pwi6Zr2EuGWCb12GSbL7BCA2C/g0ZXgKqytx+obQjTGkh+knuu6SM73oqmCa/k211o0jttx979x/Ho1v3YvvMw7t/fjv7Gpdj46JPovsOr+iR7xeOJOGZbp6WXOaE9laZvFqip6RERcHTfxuFQyugNNVEHYaR3JVKDWRmQqvHr5Ya/+0Pc+bu/j8f/6ctYv78jbT+Jzdki1pQ32acWlxZC25fioOXrKM5Eqw7/RwpyZlrV/uXSM0uNHAiFGZeXKyqRl26Au3mUD3JcxaEDqeVaUha1l5gJwd1tv6xQ8u7EI014D1jilIJalw3/wX/738Tgz38Z8Y40f7+VXwBXOuoinrudll6Wtj8z6AFvE/QA3rp1KTQxRJQSDTkSvukN+THixVDglY25cxDzr2/Fg3/4fez95y+jJ62yfjD2I3N+ZZ5sR17FzedySK8JeN4Xz5Bf7fl8MPp8aFXzV0MnlhwP5Ej9+Tumji5rcW6Wu54fjcKomLwabbjfwWsYATyafyzQz9fXY3pZo++HP4grv/plXPonv4zWxx9o8G3HUA0xlGnUFegHio8SbOb9InShQY+2R9fgegj0EIhski5xwrsJfBjRLhYCtlLsor6HSvnhbsTNO7L178WMN4E9fhzT6Sg6fQlfGdleV1BAX+8++sMjuj4JDKellznkPo1Oavzl5jRP2NPtODrqVUVi90bSjJxVnplgcu0MrNRPBfxL774T/R8I5B+IOaoDzFmI6MlfgPd3CBQD0IMHrk5DFwb0Rxse4AL4mogBX44mPGqL1Kg64lxBX48Qd18ZSLuKw2ICy2d+WmeSXwMhYb8RXBrc58tG0sEJlXjkyczZKzxnp9cF+EonAsD1T78q5mdSScrBl8mqDa0tYASJ/Agh0DtMkSV2Pt/U4sEQdlLK7CHMiC0IAny7q3kXk2NRVYBnoZcB/DODHrgnaFPTQymqPPPxuNaQExkTN+MnISTrFRzM+vGNFZk8hJQk66slmHpVe54DK0F555drpcQ9dKd4TP4vQK8b8JWepvF99G8ejw+ZRG0qQ3mkHaeSKUuZaI1VKPaYra4Txs5DcmnzJy1EERbcQVcY3znX/3mI7UKCnuqnns/fFVUh8VvB78tDRH+owEecKJnU2DjqhLuISFRI9k5KAumaG1yZK+nnSW7G4hqXMvlqMzyfjS466JtEiCZXque1JhyfYCkXPix3CPT6d7aSAasxmY5MHTmyx5+tHn0+1FYbkq3GnFd9A5+BLizoV9y8QkAJvwp6x8xgeSxJVXkZz8i7JlJPQDK3vgGwGgbOl6PK3eGUwPJYElU5vYSnYKR9FrrIoKdkFVf4HmWoeaw14XiUfc8ERcPIapc8JOh1dMAEPiF4UxkX3lOlU7ey10nlSKGw82vhTkkXF/QumFjgBOgWiI6ZcEKeurv+JeiSSnIVq/iRnIPILc2X7D7c8Kva309e1XSIXEGu0xqX8rgUNdwp6SKDHjMQnVAJUfiyHKtXI0iKJk/zKM9sJZ26ISS32iDyc75cFvZDQJKJlZCc/KSVbKB8AkqsaxQTbyp2nDPQ9wD0/jXocyhMQVaBAno3ENykkiSAJW5T2XPOGaMlr73w7SaMzOxZyZRJjCkzUSYsoUJ8+IxP4DBHOAtdWNDr0vKsPb0Wk2Pj/Lja27t6lLjcVPLNQl2g9Wtb1RfRmhRuumD7hNrU91wy8krdKTydQmZOn0ktEc5AFxz0Ikmp6NaCyVrl1PSc+5oANddGcrQdgK2gx6seYUZLrwjU+DUNfJUB8XM3SYbvAXpxluj0dJFBv1Tt1asWlePzFHuZpKSE4hDwcaK9qpyPgh5O5cT2BLUyKzo61lmWJ7Pi1a7a09MFBT10OImsOrQKW2S1omaU4lHjreKviCD+JI3P5esAh1J0+9MYsMMr0Fm1fKXXDfwTG7861+PRYj6t2IeSVED9V6VFNEfVxRN5lzSRM5S+h8Nk/LPq+WPyPgd6YdBDrwIAxxXq6U/Nr6jGPe9Svi7gv4yGfxF6nvybIc5LSi+r3oxLF5IQ3FF+XnrR8M9LrwN8rxvwz0unaafXRRcW9MfRRQDAqyzDn1p9XxV9r0B/UehVAOFNBNvFoIj/H4ug/NwtqD+4AAAAAElFTkSuQmCC;" vertex="1" parent="1">
          <mxGeometry x="219.99999999999997" y="480" width="63.53" height="40" as="geometry" />
        </mxCell>
        <mxCell id="9ciRj2-nHP8VVuhVhLj_-15" value="" style="html=1;verticalLabelPosition=bottom;align=center;labelBackgroundColor=#ffffff;verticalAlign=top;strokeWidth=2;strokeColor=#0080F0;shadow=0;dashed=0;shape=mxgraph.ios7.icons.user;" vertex="1" parent="1">
          <mxGeometry x="45" y="455" width="43" height="45" as="geometry" />
        </mxCell>
        <mxCell id="9ciRj2-nHP8VVuhVhLj_-21" value="" style="edgeStyle=orthogonalEdgeStyle;html=1;endArrow=block;elbow=vertical;startArrow=none;endFill=1;strokeColor=#545B64;rounded=0;entryX=0.5;entryY=1;entryDx=0;entryDy=0;entryPerimeter=0;" edge="1" parent="1" source="9ciRj2-nHP8VVuhVhLj_-6" target="9ciRj2-nHP8VVuhVhLj_-1">
          <mxGeometry width="100" relative="1" as="geometry">
            <mxPoint x="256" y="560" as="sourcePoint" />
            <mxPoint x="356" y="560" as="targetPoint" />
          </mxGeometry>
        </mxCell>
        <mxCell id="9ciRj2-nHP8VVuhVhLj_-30" value="" style="edgeStyle=orthogonalEdgeStyle;html=1;endArrow=block;elbow=vertical;startArrow=none;endFill=1;strokeColor=#545B64;rounded=0;exitX=0.5;exitY=1;exitDx=0;exitDy=0;exitPerimeter=0;" edge="1" parent="1" source="9ciRj2-nHP8VVuhVhLj_-8" target="9ciRj2-nHP8VVuhVhLj_-10">
          <mxGeometry width="100" relative="1" as="geometry">
            <mxPoint x="256" y="560" as="sourcePoint" />
            <mxPoint x="356" y="560" as="targetPoint" />
          </mxGeometry>
        </mxCell>
        <mxCell id="9ciRj2-nHP8VVuhVhLj_-31" value="" style="edgeStyle=orthogonalEdgeStyle;html=1;endArrow=block;elbow=vertical;startArrow=none;endFill=1;strokeColor=#545B64;rounded=0;exitX=0.5;exitY=1;exitDx=0;exitDy=0;" edge="1" parent="1" source="9ciRj2-nHP8VVuhVhLj_-12" target="9ciRj2-nHP8VVuhVhLj_-10">
          <mxGeometry width="100" relative="1" as="geometry">
            <mxPoint x="256" y="560" as="sourcePoint" />
            <mxPoint x="356" y="560" as="targetPoint" />
          </mxGeometry>
        </mxCell>
        <mxCell id="9ciRj2-nHP8VVuhVhLj_-32" value="EC2" style="text;html=1;align=center;verticalAlign=middle;whiteSpace=wrap;rounded=0;" vertex="1" parent="1">
          <mxGeometry x="320" y="430" width="60" height="30" as="geometry" />
        </mxCell>
        <mxCell id="9ciRj2-nHP8VVuhVhLj_-33" value="ユーザ" style="text;html=1;align=center;verticalAlign=middle;whiteSpace=wrap;rounded=0;" vertex="1" parent="1">
          <mxGeometry x="45" y="505" width="60" height="30" as="geometry" />
        </mxCell>
        <mxCell id="9ciRj2-nHP8VVuhVhLj_-34" value="Streamlit" style="text;html=1;align=center;verticalAlign=middle;whiteSpace=wrap;rounded=0;" vertex="1" parent="1">
          <mxGeometry x="223.53" y="500" width="60" height="50" as="geometry" />
        </mxCell>
        <mxCell id="9ciRj2-nHP8VVuhVhLj_-36" value="Bedrock" style="text;html=1;align=center;verticalAlign=middle;whiteSpace=wrap;rounded=0;" vertex="1" parent="1">
          <mxGeometry x="524.5" y="500" width="60" height="30" as="geometry" />
        </mxCell>
        <mxCell id="9ciRj2-nHP8VVuhVhLj_-37" value="OpenSearch Serverless" style="text;html=1;align=center;verticalAlign=middle;whiteSpace=wrap;rounded=0;" vertex="1" parent="1">
          <mxGeometry x="586.52" y="375" width="60" height="30" as="geometry" />
        </mxCell>
        <mxCell id="9ciRj2-nHP8VVuhVhLj_-38" value="S3" style="text;html=1;align=center;verticalAlign=middle;whiteSpace=wrap;rounded=0;" vertex="1" parent="1">
          <mxGeometry x="490" y="300" width="60" height="30" as="geometry" />
        </mxCell>
        <mxCell id="9ciRj2-nHP8VVuhVhLj_-39" value="Embed&lt;div&gt;model&lt;/div&gt;" style="text;html=1;align=center;verticalAlign=middle;whiteSpace=wrap;rounded=0;" vertex="1" parent="1">
          <mxGeometry x="646.52" y="300" width="60" height="30" as="geometry" />
        </mxCell>
        <mxCell id="9ciRj2-nHP8VVuhVhLj_-40" value="LLM" style="text;html=1;align=center;verticalAlign=middle;whiteSpace=wrap;rounded=0;" vertex="1" parent="1">
          <mxGeometry x="623.9599999999999" y="500" width="60" height="30" as="geometry" />
        </mxCell>
        <mxCell id="9ciRj2-nHP8VVuhVhLj_-41" value="" style="edgeStyle=orthogonalEdgeStyle;html=1;endArrow=block;elbow=vertical;startArrow=block;startFill=1;endFill=1;strokeColor=#545B64;rounded=0;entryX=0.5;entryY=0;entryDx=0;entryDy=0;entryPerimeter=0;" edge="1" parent="1" source="9ciRj2-nHP8VVuhVhLj_-10" target="9ciRj2-nHP8VVuhVhLj_-2">
          <mxGeometry width="100" relative="1" as="geometry">
            <mxPoint x="236" y="240" as="sourcePoint" />
            <mxPoint x="336" y="240" as="targetPoint" />
          </mxGeometry>
        </mxCell>
        <mxCell id="9ciRj2-nHP8VVuhVhLj_-42" value="" style="edgeStyle=orthogonalEdgeStyle;html=1;endArrow=block;elbow=vertical;startArrow=block;startFill=1;endFill=1;strokeColor=#545B64;rounded=0;entryX=0;entryY=0.5;entryDx=0;entryDy=0;exitX=1;exitY=0.5;exitDx=0;exitDy=0;exitPerimeter=0;" edge="1" parent="1" source="9ciRj2-nHP8VVuhVhLj_-2" target="9ciRj2-nHP8VVuhVhLj_-11">
          <mxGeometry width="100" relative="1" as="geometry">
            <mxPoint x="236" y="260" as="sourcePoint" />
            <mxPoint x="336" y="260" as="targetPoint" />
          </mxGeometry>
        </mxCell>
        <mxCell id="9ciRj2-nHP8VVuhVhLj_-43" value="" style="html=1;verticalLabelPosition=bottom;align=center;labelBackgroundColor=#ffffff;verticalAlign=top;strokeWidth=2;strokeColor=#0080F0;shadow=0;dashed=0;shape=mxgraph.ios7.icons.documents;" vertex="1" parent="1">
          <mxGeometry x="540" y="230" width="30" height="30" as="geometry" />
        </mxCell>
        <mxCell id="9ciRj2-nHP8VVuhVhLj_-46" value="検索対象文書" style="text;html=1;align=center;verticalAlign=middle;whiteSpace=wrap;rounded=0;" vertex="1" parent="1">
          <mxGeometry x="474" y="230" width="60" height="30" as="geometry" />
        </mxCell>
        <mxCell id="9ciRj2-nHP8VVuhVhLj_-48" value="" style="shape=umlActor;verticalLabelPosition=bottom;verticalAlign=top;html=1;outlineConnect=0;" vertex="1" parent="1">
          <mxGeometry x="385" y="636" width="29" height="50" as="geometry" />
        </mxCell>
        <mxCell id="9ciRj2-nHP8VVuhVhLj_-53" value="" style="edgeStyle=orthogonalEdgeStyle;html=1;endArrow=block;elbow=vertical;startArrow=none;endFill=1;strokeColor=#545B64;rounded=0;entryX=0.5;entryY=0;entryDx=0;entryDy=0;entryPerimeter=0;" edge="1" parent="1" source="9ciRj2-nHP8VVuhVhLj_-43" target="9ciRj2-nHP8VVuhVhLj_-8">
          <mxGeometry width="100" relative="1" as="geometry">
            <mxPoint x="230" y="110" as="sourcePoint" />
            <mxPoint x="330" y="110" as="targetPoint" />
          </mxGeometry>
        </mxCell>
        <mxCell id="9ciRj2-nHP8VVuhVhLj_-57" value="" style="edgeStyle=orthogonalEdgeStyle;html=1;endArrow=block;elbow=vertical;startArrow=block;startFill=1;endFill=1;strokeColor=#545B64;rounded=0;exitX=1;exitY=0.5;exitDx=0;exitDy=0;exitPerimeter=0;entryX=0;entryY=0.5;entryDx=0;entryDy=0;entryPerimeter=0;" edge="1" parent="1" source="9ciRj2-nHP8VVuhVhLj_-1" target="9ciRj2-nHP8VVuhVhLj_-2">
          <mxGeometry width="100" relative="1" as="geometry">
            <mxPoint x="390" y="479.5" as="sourcePoint" />
            <mxPoint x="490" y="479.5" as="targetPoint" />
          </mxGeometry>
        </mxCell>
        <mxCell id="9ciRj2-nHP8VVuhVhLj_-59" value="" style="edgeStyle=orthogonalEdgeStyle;html=1;endArrow=block;elbow=vertical;startArrow=block;startFill=1;endFill=1;strokeColor=#545B64;rounded=0;entryX=0;entryY=0.5;entryDx=0;entryDy=0;entryPerimeter=0;" edge="1" parent="1" source="9ciRj2-nHP8VVuhVhLj_-5" target="9ciRj2-nHP8VVuhVhLj_-1">
          <mxGeometry width="100" relative="1" as="geometry">
            <mxPoint x="150" y="730" as="sourcePoint" />
            <mxPoint x="250" y="730" as="targetPoint" />
          </mxGeometry>
        </mxCell>
        <mxCell id="9ciRj2-nHP8VVuhVhLj_-61" value="" style="edgeStyle=orthogonalEdgeStyle;html=1;endArrow=block;elbow=vertical;startArrow=block;startFill=1;endFill=1;strokeColor=#545B64;rounded=0;exitX=0.961;exitY=0.541;exitDx=0;exitDy=0;exitPerimeter=0;" edge="1" parent="1" source="9ciRj2-nHP8VVuhVhLj_-15" target="9ciRj2-nHP8VVuhVhLj_-5">
          <mxGeometry width="100" relative="1" as="geometry">
            <mxPoint x="40" y="390" as="sourcePoint" />
            <mxPoint x="140" y="390" as="targetPoint" />
          </mxGeometry>
        </mxCell>
        <mxCell id="9ciRj2-nHP8VVuhVhLj_-63" value="LangChain" style="text;html=1;align=center;verticalAlign=middle;whiteSpace=wrap;rounded=0;" vertex="1" parent="1">
          <mxGeometry x="414" y="512.5" width="60" height="25" as="geometry" />
        </mxCell>
        <mxCell id="9ciRj2-nHP8VVuhVhLj_-64" value="システム担当" style="text;html=1;align=center;verticalAlign=middle;whiteSpace=wrap;rounded=0;" vertex="1" parent="1">
          <mxGeometry x="414" y="649.5" width="96" height="25" as="geometry" />
        </mxCell>
      </root>
    </mxGraphModel>
  </diagram>
</mxfile>
